<svg width="14" height="15" viewBox="0 0 14 15" fill="none" xmlns="http://www.w3.org/2000/svg">
<g clip-path="url(#clip0_4734_50551)">
<path d="M1.75 7.5C1.75 8.18944 1.8858 8.87213 2.14963 9.50909C2.41347 10.146 2.80018 10.7248 3.28769 11.2123C3.7752 11.6998 4.35395 12.0865 4.99091 12.3504C5.62787 12.6142 6.31056 12.75 7 12.75C7.68944 12.75 8.37213 12.6142 9.00909 12.3504C9.64605 12.0865 10.2248 11.6998 10.7123 11.2123C11.1998 10.7248 11.5865 10.146 11.8504 9.50909C12.1142 8.87213 12.25 8.18944 12.25 7.5C12.25 6.81056 12.1142 6.12787 11.8504 5.49091C11.5865 4.85395 11.1998 4.2752 10.7123 3.78769C10.2248 3.30018 9.64605 2.91347 9.00909 2.64963C8.37213 2.3858 7.68944 2.25 7 2.25C6.31056 2.25 5.62787 2.3858 4.99091 2.64963C4.35395 2.91347 3.7752 3.30018 3.28769 3.78769C2.80018 4.2752 2.41347 4.85395 2.14963 5.49091C1.8858 6.12787 1.75 6.81056 1.75 7.5Z" fill="#46474C"/>
<path d="M5.25 7.4987L6.41667 8.66537L8.75 6.33203" stroke="white" stroke-width="1.2" stroke-linecap="round" stroke-linejoin="round"/>
</g>
<defs>
<clipPath id="clip0_4734_50551">
<rect width="14" height="14" fill="white" transform="translate(0 0.5)"/>
</clipPath>
</defs>
</svg>
