<svg width="14" height="15" viewBox="0 0 14 15" fill="none" xmlns="http://www.w3.org/2000/svg">
<g clip-path="url(#clip0_4734_49012)">
<path d="M5.9733 2.80794L1.06047 11.0096C0.959248 11.185 0.905702 11.3839 0.905156 11.5864C0.904609 11.7889 0.957082 11.988 1.05736 12.164C1.15763 12.3399 1.30222 12.4866 1.47674 12.5893C1.65126 12.6921 1.84963 12.7474 2.05214 12.7497H11.8784C12.0809 12.7474 12.2793 12.6921 12.4538 12.5893C12.6283 12.4866 12.7729 12.3399 12.8732 12.164C12.9734 11.988 13.0259 11.7889 13.0254 11.5864C13.0248 11.3839 12.9713 11.185 12.8701 11.0096L7.95664 2.80794C7.85318 2.6376 7.70759 2.49678 7.5339 2.39906C7.3602 2.30134 7.16427 2.25 6.96497 2.25C6.76567 2.25 6.56974 2.30134 6.39605 2.39906C6.22235 2.49678 6.07676 2.6376 5.9733 2.80794Z" fill="#F4A130"/>
<path d="M7 5.75V8.08333" stroke="white" stroke-width="1.2" stroke-linecap="round" stroke-linejoin="round"/>
<path d="M7 10.418H7.00583" stroke="white" stroke-width="1.2" stroke-linecap="round" stroke-linejoin="round"/>
</g>
<defs>
<clipPath id="clip0_4734_49012">
<rect width="14" height="14" fill="white" transform="translate(0 0.5)"/>
</clipPath>
</defs>
</svg>
