<svg width="138" height="25" viewBox="0 0 138 25" fill="none" xmlns="http://www.w3.org/2000/svg">
<path d="M7.24846 11.9902C7.51636 11.9902 7.75922 12.0893 7.95061 12.25L7.9633 12.2549L7.99651 12.2881C8.01437 12.3034 8.03197 12.322 8.04729 12.3398L9.90276 14.21H9.9008L17.0746 21.3682L21.7524 16.709L21.7494 16.7109C22.1756 16.2873 22.8678 16.2902 23.2914 16.7139C23.72 17.14 23.7175 17.8287 23.2914 18.2549L17.8451 23.6836C17.6308 23.8952 17.3552 24 17.0746 24C16.794 24 16.5159 23.8923 16.3041 23.6807L6.49358 13.8936C6.48349 13.8835 6.47816 13.8686 6.46818 13.8584C6.40183 13.792 6.34811 13.7174 6.30217 13.6357V13.6309C6.20774 13.4701 6.15178 13.286 6.15178 13.0869C6.15195 12.4798 6.64391 11.9905 7.24846 11.9902ZM22.9164 0C24.856 2.71654e-05 26.6753 0.748211 28.0483 2.1084L28.0434 2.11035C30.8583 4.93796 30.8583 9.53183 28.0434 12.3467L27.6303 12.7598C27.4262 12.9638 27.148 13.079 26.8598 13.0791H19.685C19.2307 14.3446 18.0343 15.2586 16.6156 15.2588C14.8139 15.2588 13.3461 13.791 13.3461 11.9893C13.3461 10.1876 14.8139 8.71973 16.6156 8.71973C18.0343 8.71992 19.2332 9.63389 19.685 10.8994H26.4076L26.5024 10.8047C28.4696 8.83455 28.4667 5.62491 26.5043 3.65234C25.5498 2.703 24.2585 2.17969 22.9135 2.17969C21.5686 2.17976 20.2999 2.70036 19.3481 3.64453L17.8432 5.15723C17.4732 5.52972 16.8887 5.58094 16.4574 5.28516C16.4191 5.25833 16.3822 5.22957 16.3481 5.19922L14.7983 3.64941C13.8489 2.70013 12.5881 2.17682 11.228 2.17676C9.86771 2.17676 8.59665 2.70011 7.64983 3.64941C6.40951 4.89478 5.90099 6.73737 6.32463 8.45996C6.4701 9.04437 6.11316 9.63383 5.52873 9.7793C4.93669 9.91957 4.3523 9.56483 4.2094 8.98047C3.60455 6.52545 4.33217 3.89457 6.10588 2.11328C7.46607 0.750603 9.2981 9.06297e-05 11.2299 0C13.1618 0 14.9794 0.750517 16.3422 2.11328L17.0746 2.8457L17.8119 2.10254C19.1799 0.747467 20.9769 0 22.9164 0ZM16.6205 10.8975C16.0184 10.8975 15.5309 11.3842 15.5307 11.9863C15.5307 12.5886 16.0182 13.0762 16.6205 13.0762C17.2227 13.076 17.7104 12.5885 17.7104 11.9863C17.7102 11.3843 17.2226 10.8976 16.6205 10.8975Z" fill="white"/>
<path d="M37.1146 8.328C37.1146 9.384 37.8826 10.2 39.1626 10.2C40.4586 10.2 41.2266 9.384 41.2266 8.328C41.2266 7.32 40.4586 6.504 39.1626 6.504C37.8826 6.504 37.1146 7.32 37.1146 8.328ZM46.6666 4.008V18.264H44.8106V4.008H46.6666ZM35.1946 8.344C35.1946 6.344 36.7626 4.92 39.1626 4.92C41.5786 4.92 43.1146 6.344 43.1146 8.344C43.1146 10.328 41.5786 11.768 39.1626 11.768C36.7626 11.768 35.1946 10.328 35.1946 8.344ZM44.2186 14.616C42.8586 14.792 40.9226 14.952 39.4026 15.032C37.8186 15.096 36.1226 15.16 34.9226 15.144L34.6506 13.544C36.2986 13.544 37.6746 13.528 39.2906 13.464C41.0666 13.4 42.7946 13.272 44.0586 13.112L44.2186 14.616ZM59.6143 4.008V9.496H61.6623V11.032H59.6143V18.264H57.7583V4.008H59.6143ZM57.0543 13.464C56.6703 13.928 56.3343 14.392 55.9503 14.856C54.7823 14.104 53.1343 12.424 52.6543 10.872C52.1903 12.488 50.7503 14.28 49.2783 15.144C48.8943 14.68 48.5263 14.232 48.1263 13.784C50.4463 12.296 51.6623 10.008 51.6623 7.16V5.208H53.5983V7.064C53.5983 9.88 54.8943 12.088 57.0543 13.464ZM73.6181 15.528C73.6181 17.224 71.8261 18.28 68.7381 18.28C65.6501 18.28 63.8741 17.224 63.8741 15.528C63.8741 13.848 65.6501 12.776 68.7381 12.776C71.8261 12.776 73.6181 13.848 73.6181 15.528ZM70.4981 11.672C69.2821 11.976 66.6581 12.168 64.7221 12.168H62.8181V7.784H67.2661V6.408H62.7541V4.92H69.1541V9.176H64.7061V10.68C66.4821 10.68 69.1701 10.568 70.2581 10.264L70.4981 11.672ZM75.4901 9.048H73.4581V12.584H71.5861V4.008H73.4581V7.528H75.4901V9.048ZM68.7381 14.248C66.8661 14.248 65.7941 14.776 65.7941 15.528C65.7941 16.28 66.8661 16.792 68.7381 16.792C70.6261 16.792 71.6821 16.28 71.6821 15.528C71.6821 14.776 70.6261 14.248 68.7381 14.248Z" fill="white"/>
</svg>
