<svg width="2" height="11" viewBox="0 0 2 11" fill="none" xmlns="http://www.w3.org/2000/svg">
<path d="M0 5.33203C0 5.59725 0.105357 5.8516 0.292893 6.03914C0.48043 6.22667 0.734784 6.33203 1 6.33203C1.26522 6.33203 1.51957 6.22667 1.70711 6.03914C1.89464 5.8516 2 5.59725 2 5.33203C2 5.06681 1.89464 4.81246 1.70711 4.62492C1.51957 4.43739 1.26522 4.33203 1 4.33203C0.734784 4.33203 0.48043 4.43739 0.292893 4.62492C0.105357 4.81246 0 5.06681 0 5.33203Z" fill="#46474C"/>
<path d="M0 9.33203C0 9.59725 0.105357 9.8516 0.292893 10.0391C0.48043 10.2267 0.734784 10.332 1 10.332C1.26522 10.332 1.51957 10.2267 1.70711 10.0391C1.89464 9.8516 2 9.59725 2 9.33203C2 9.06681 1.89464 8.81246 1.70711 8.62492C1.51957 8.43739 1.26522 8.33203 1 8.33203C0.734784 8.33203 0.48043 8.43739 0.292893 8.62492C0.105357 8.81246 0 9.06681 0 9.33203Z" fill="#46474C"/>
<path d="M0 1C0 1.26522 0.105357 1.51957 0.292893 1.70711C0.48043 1.89464 0.734784 2 1 2C1.26522 2 1.51957 1.89464 1.70711 1.70711C1.89464 1.51957 2 1.26522 2 1C2 0.734784 1.89464 0.48043 1.70711 0.292893C1.51957 0.105357 1.26522 0 1 0C0.734784 0 0.48043 0.105357 0.292893 0.292893C0.105357 0.48043 0 0.734784 0 1Z" fill="#46474C"/>
</svg>
