<svg width="12" height="12" viewBox="0 0 12 12" fill="none" xmlns="http://www.w3.org/2000/svg">
<g clip-path="url(#clip0_4608_93726)">
<path d="M10.0203 8.0044C10.4449 7.16148 10.5929 6.20607 10.4432 5.27416C10.2934 4.34226 9.85352 3.48133 9.18612 2.81392C8.51873 2.1465 7.65783 1.70661 6.72595 1.55684C5.79406 1.40707 4.83869 1.55506 3.99578 1.97975M2.84043 2.81563C2.41823 3.23086 2.08242 3.72557 1.85237 4.27124C1.62231 4.8169 1.50257 5.40271 1.50004 5.99489C1.49751 6.58706 1.61225 7.17388 1.83764 7.72148C2.06303 8.26909 2.39461 8.76665 2.81325 9.18547C3.23189 9.60428 3.72931 9.93607 4.27681 10.1617C4.82431 10.3873 5.41106 10.5023 6.00322 10.5C6.59538 10.4977 7.18122 10.3782 7.72696 10.1483C8.2727 9.91846 8.76753 9.58284 9.18291 9.16079" stroke="#FF4242" stroke-width="1.2" stroke-linecap="round" stroke-linejoin="round"/>
<path d="M1.52612 1.5L10.4978 10.4719" stroke="#FF4242" stroke-width="1.2" stroke-linecap="round" stroke-linejoin="round"/>
</g>
<defs>
<clipPath id="clip0_4608_93726">
<rect width="12" height="12" fill="white"/>
</clipPath>
</defs>
</svg>
