<svg width="16" height="16" viewBox="0 0 16 16" fill="none" xmlns="http://www.w3.org/2000/svg">
<path d="M1.33301 8.00008C1.33301 11.682 4.31778 14.6667 7.99967 14.6667C11.6816 14.6667 14.6663 11.682 14.6663 8.00008C14.6663 4.31818 11.6816 1.33341 7.99967 1.33341C4.31778 1.33341 1.33301 4.31818 1.33301 8.00008Z" fill="#FF4242"/>
<path d="M9.62305 5.62305C9.83127 5.41482 10.1687 5.41494 10.377 5.62305C10.5852 5.83133 10.5852 6.16867 10.377 6.37695L8.75293 8L10.376 9.62305C10.5843 9.83133 10.5843 10.1687 10.376 10.377C10.1677 10.5852 9.83033 10.5852 9.62207 10.377L7.99902 8.75391L6.37695 10.377C6.16867 10.5852 5.8313 10.5852 5.62305 10.377C5.41497 10.1687 5.41491 9.83128 5.62305 9.62305L7.24512 8L5.62207 6.37695C5.41395 6.16868 5.41389 5.83128 5.62207 5.62305C5.8303 5.41481 6.16769 5.41491 6.37598 5.62305L7.99902 7.24609L9.62305 5.62305Z" fill="white"/>
</svg>
