<svg width="20" height="20" viewBox="0 0 20 20" fill="none" xmlns="http://www.w3.org/2000/svg">
<path d="M7.42857 3.66667H5.71429C5.25963 3.66667 4.82359 3.84226 4.5021 4.15482C4.18061 4.46738 4 4.89131 4 5.33333V16.3333C4 16.7754 4.18061 17.1993 4.5021 17.5118C4.82359 17.8244 5.25963 18 5.71429 18H14.2857C14.7404 18 15.1764 17.8244 15.4979 17.5118C15.8194 17.1993 16 16.7754 16 16.3333V5.33333C16 4.89131 15.8194 4.46738 15.4979 4.15482C15.1764 3.84226 14.7404 3.66667 14.2857 3.66667H12.5714M7.42857 3.66667C7.42857 3.22464 7.60918 2.80072 7.93067 2.48816C8.25217 2.17559 8.6882 2 9.14286 2H10.8571C11.3118 2 11.7478 2.17559 12.0693 2.48816C12.3908 2.80072 12.5714 3.22464 12.5714 3.66667M7.42857 3.66667C7.42857 4.10869 7.60918 4.53262 7.93067 4.84518C8.25217 5.15774 8.6882 5.33333 9.14286 5.33333H10.8571C11.3118 5.33333 11.7478 5.15774 12.0693 4.84518C12.3908 4.53262 12.5714 4.10869 12.5714 3.66667M8.28571 11.1667H11.7143M10 9.5V12.8333" stroke="#70737C" stroke-width="1.5" stroke-linecap="round" stroke-linejoin="round"/>
</svg>
