<svg width="20" height="20" viewBox="0 0 20 20" fill="none" xmlns="http://www.w3.org/2000/svg">
<path d="M6.5 12.3333V13.8889M10 9.22222V13.8889M13.5 10.7778V13.8889M3 4.55556C3 4.143 3.16389 3.74733 3.45561 3.45561C3.74733 3.16389 4.143 3 4.55556 3H15.4444C15.857 3 16.2527 3.16389 16.5444 3.45561C16.8361 3.74733 17 4.143 17 4.55556V15.4444C17 15.857 16.8361 16.2527 16.5444 16.5444C16.2527 16.8361 15.857 17 15.4444 17H4.55556C4.143 17 3.74733 16.8361 3.45561 16.5444C3.16389 16.2527 3 15.857 3 15.4444V4.55556Z" stroke="#70737C" stroke-width="1.5" stroke-linecap="round" stroke-linejoin="round"/>
</svg>
