<svg width="16" height="16" viewBox="0 0 16 16" fill="none" xmlns="http://www.w3.org/2000/svg">
<g clip-path="url(#clip0_625_22475)">
<path d="M3.89472 3.02222H3.26315C2.92814 3.02222 2.60685 3.15334 2.36997 3.38675C2.13308 3.62016 2 3.93673 2 4.26682V6.44487C2 7.35262 2.36597 8.22319 3.01741 8.86506C3.66885 9.50693 4.55238 9.86753 5.47365 9.86753C6.39492 9.86753 7.27846 9.50693 7.9299 8.86506C8.58133 8.22319 8.94731 7.35262 8.94731 6.44487V4.26682C8.94731 3.93673 8.81423 3.62016 8.57734 3.38675C8.34045 3.15334 8.01917 3.02222 7.68416 3.02222H7.05259" stroke="#292A2D" stroke-width="1.5" stroke-linecap="round" stroke-linejoin="round"/>
<path d="M5.15723 9.86642C5.15723 10.3567 5.25524 10.8423 5.44568 11.2953C5.63612 11.7483 5.91525 12.1599 6.26713 12.5066C6.61901 12.8533 7.03675 13.1284 7.49651 13.316C7.95627 13.5036 8.44903 13.6002 8.94667 13.6002C9.4443 13.6002 9.93707 13.5036 10.3968 13.316C10.8566 13.1284 11.2743 12.8533 11.6262 12.5066C11.9781 12.1599 12.2572 11.7483 12.4477 11.2953C12.6381 10.8423 12.7361 10.3567 12.7361 9.86642V7.99951" stroke="#292A2D" stroke-width="1.5" stroke-linecap="round" stroke-linejoin="round"/>
<path d="M7.05225 2.40015V3.64475" stroke="#292A2D" stroke-width="1.5" stroke-linecap="round" stroke-linejoin="round"/>
<path d="M3.89355 2.40015V3.64475" stroke="#292A2D" stroke-width="1.5" stroke-linecap="round" stroke-linejoin="round"/>
<path d="M11.4736 6.75657C11.4736 7.08666 11.6067 7.40322 11.8436 7.63663C12.0805 7.87004 12.4018 8.00117 12.7368 8.00117C13.0718 8.00117 13.3931 7.87004 13.63 7.63663C13.8668 7.40322 13.9999 7.08666 13.9999 6.75657C13.9999 6.42648 13.8668 6.10991 13.63 5.8765C13.3931 5.64309 13.0718 5.51196 12.7368 5.51196C12.4018 5.51196 12.0805 5.64309 11.8436 5.8765C11.6067 6.10991 11.4736 6.42648 11.4736 6.75657Z" stroke="#292A2D" stroke-width="1.5" stroke-linecap="round" stroke-linejoin="round"/>
</g>
<defs>
<clipPath id="clip0_625_22475">
<rect width="16" height="16" fill="white" transform="translate(0 0.000244141)"/>
</clipPath>
</defs>
</svg>
