<svg width="18" height="16" viewBox="0 0 18 16" fill="none" xmlns="http://www.w3.org/2000/svg">
<path d="M3.8684 1.77734H3.07893C2.66017 1.77734 2.25857 1.94125 1.96246 2.23301C1.66635 2.52477 1.5 2.92049 1.5 3.3331V6.05567C1.5 7.19035 1.95747 8.27855 2.77176 9.0809C3.58606 9.88324 4.69048 10.334 5.84207 10.334C6.99365 10.334 8.09808 9.88324 8.91237 9.0809C9.72667 8.27855 10.1841 7.19035 10.1841 6.05567V3.3331C10.1841 2.92049 10.0178 2.52477 9.72167 2.23301C9.42557 1.94125 9.02396 1.77734 8.6052 1.77734H7.81573" stroke="#70737C" stroke-width="1.5" stroke-linecap="round" stroke-linejoin="round"/>
<path d="M5.44629 10.3336C5.44629 10.9465 5.56881 11.5535 5.80686 12.1197C6.0449 12.686 6.39381 13.2005 6.83367 13.6339C7.27352 14.0673 7.7957 14.4111 8.37039 14.6456C8.94509 14.8802 9.56104 15.0009 10.1831 15.0009C10.8051 15.0009 11.4211 14.8802 11.9958 14.6456C12.5705 14.4111 13.0927 14.0673 13.5325 13.6339C13.9724 13.2005 14.3213 12.686 14.5593 12.1197C14.7974 11.5535 14.9199 10.9465 14.9199 10.3336V8" stroke="#70737C" stroke-width="1.5" stroke-linecap="round" stroke-linejoin="round"/>
<path d="M7.81567 1V2.55575" stroke="#70737C" stroke-width="1.5" stroke-linecap="round" stroke-linejoin="round"/>
<path d="M3.86719 1V2.55575" stroke="#70737C" stroke-width="1.5" stroke-linecap="round" stroke-linejoin="round"/>
<path d="M13.3418 6.44638C13.3418 6.85899 13.5081 7.2547 13.8043 7.54646C14.1004 7.83822 14.502 8.00213 14.9207 8.00213C15.3395 8.00213 15.7411 7.83822 16.0372 7.54646C16.3333 7.2547 16.4997 6.85899 16.4997 6.44638C16.4997 6.03377 16.3333 5.63806 16.0372 5.3463C15.7411 5.05453 15.3395 4.89063 14.9207 4.89062C14.502 4.89063 14.1004 5.05453 13.8043 5.3463C13.5081 5.63806 13.3418 6.03377 13.3418 6.44638Z" stroke="#70737C" stroke-width="1.5" stroke-linecap="round" stroke-linejoin="round"/>
</svg>
