<svg width="20" height="20" viewBox="0 0 20 20" fill="none" xmlns="http://www.w3.org/2000/svg">
<path d="M8.33333 9.16667V7.5C8.33333 7.05797 8.50893 6.63405 8.82149 6.32149C9.13405 6.00893 9.55797 5.83333 10 5.83333C10.442 5.83333 10.866 6.00893 11.1785 6.32149C11.4911 6.63405 11.6667 7.05797 11.6667 7.5V9.16667M10 2.5C16 2.5 17.5 4 17.5 10C17.5 16 16 17.5 10 17.5C4 17.5 2.5 16 2.5 10C2.5 4 4 2.5 10 2.5ZM6.66667 10C6.66667 9.77899 6.75446 9.56702 6.91074 9.41074C7.06702 9.25446 7.27899 9.16667 7.5 9.16667H12.5C12.721 9.16667 12.933 9.25446 13.0893 9.41074C13.2455 9.56702 13.3333 9.77899 13.3333 10V12.5C13.3333 12.721 13.2455 12.933 13.0893 13.0893C12.933 13.2455 12.721 13.3333 12.5 13.3333H7.5C7.27899 13.3333 7.06702 13.2455 6.91074 13.0893C6.75446 12.933 6.66667 12.721 6.66667 12.5V10Z" stroke="#70737C" stroke-width="1.35" stroke-linecap="round" stroke-linejoin="round"/>
</svg>
