<svg width="20" height="20" viewBox="0 0 20 20" fill="none" xmlns="http://www.w3.org/2000/svg">
<path d="M2 5.71429C2 5.25963 2.1873 4.82359 2.5207 4.5021C2.8541 4.18061 3.30628 4 3.77778 4H16.2222C16.6937 4 17.1459 4.18061 17.4793 4.5021C17.8127 4.82359 18 5.25963 18 5.71429M2 5.71429V14.2857C2 14.7404 2.1873 15.1764 2.5207 15.4979C2.8541 15.8194 3.30628 16 3.77778 16H16.2222C16.6937 16 17.1459 15.8194 17.4793 15.4979C17.8127 15.1764 18 14.7404 18 14.2857V5.71429M2 5.71429L10 10.8571L18 5.71429" stroke="#70737C" stroke-width="1.5" stroke-linecap="round" stroke-linejoin="round"/>
</svg>
