<svg width="20" height="20" viewBox="0 0 20 20" fill="none" xmlns="http://www.w3.org/2000/svg">
<path d="M6.5 6.5V4.75C6.5 4.28587 6.68437 3.84075 7.01256 3.51256C7.34075 3.18437 7.78587 3 8.25 3H11.75C12.2141 3 12.6592 3.18437 12.9874 3.51256C13.3156 3.84075 13.5 4.28587 13.5 4.75V6.5M8.25 11.75H11.75M10 10V13.5M3 8.25C3 7.78587 3.18437 7.34075 3.51256 7.01256C3.84075 6.68437 4.28587 6.5 4.75 6.5H15.25C15.7141 6.5 16.1592 6.68437 16.4874 7.01256C16.8156 7.34075 17 7.78587 17 8.25V15.25C17 15.7141 16.8156 16.1592 16.4874 16.4874C16.1592 16.8156 15.7141 17 15.25 17H4.75C4.28587 17 3.84075 16.8156 3.51256 16.4874C3.18437 16.1592 3 15.7141 3 15.25V8.25Z" stroke="#70737C" stroke-width="1.5" stroke-linecap="round" stroke-linejoin="round"/>
</svg>
