<svg width="20" height="20" viewBox="0 0 20 20" fill="none" xmlns="http://www.w3.org/2000/svg">
<path d="M13.5 3V6.11111M6.5 3V6.11111M3 9.22222H17M3 6.11111C3 5.69855 3.18437 5.30289 3.51256 5.01117C3.84075 4.71944 4.28587 4.55556 4.75 4.55556H15.25C15.7141 4.55556 16.1592 4.71944 16.4874 5.01117C16.8156 5.30289 17 5.69855 17 6.11111V15.4444C17 15.857 16.8156 16.2527 16.4874 16.5444C16.1592 16.8361 15.7141 17 15.25 17H4.75C4.28587 17 3.84075 16.8361 3.51256 16.5444C3.18437 16.2527 3 15.857 3 15.4444V6.11111ZM6.5 12.3333H8.25V13.8889H6.5V12.3333Z" stroke="#70737C" stroke-width="1.5" stroke-linecap="round" stroke-linejoin="round"/>
</svg>
