<svg width="20" height="20" viewBox="0 0 20 20" fill="none" xmlns="http://www.w3.org/2000/svg">
<path d="M2 8.28571H18M5.55556 12.5714H5.56444M9.11111 12.5714H10.8889M2 6.57143C2 5.88944 2.28095 5.23539 2.78105 4.75315C3.28115 4.27092 3.95942 4 4.66667 4H15.3333C16.0406 4 16.7189 4.27092 17.219 4.75315C17.719 5.23539 18 5.88944 18 6.57143V13.4286C18 14.1106 17.719 14.7646 17.219 15.2468C16.7189 15.7291 16.0406 16 15.3333 16H4.66667C3.95942 16 3.28115 15.7291 2.78105 15.2468C2.28095 14.7646 2 14.1106 2 13.4286V6.57143Z" stroke="#70737C" stroke-width="1.5" stroke-linecap="round" stroke-linejoin="round"/>
</svg>
