<svg width="14" height="14" viewBox="0 0 14 14" fill="none" xmlns="http://www.w3.org/2000/svg">
<g clip-path="url(#clip0_2908_70641)">
<path d="M9.69141 4.4999C9.56106 4.03535 9.35558 3.60222 9.08891 3.21444C8.30394 2.073 6.98872 1.32456 5.4987 1.32456C3.09396 1.32456 1.14453 3.27399 1.14453 5.67873C1.14453 6.91386 1.65881 8.02888 2.48492 8.82133C2.76455 9.08957 3.07992 9.32085 3.42316 9.50732" stroke="#46474C" stroke-width="1.2" stroke-miterlimit="10" stroke-linecap="round"/>
<path d="M4 5.82959H4.75H5.5H6.25H7" stroke="#46474C" stroke-linecap="round"/>
<path d="M4.30078 5L4.94364 7L5.5865 5L6.22935 7L6.87221 5" stroke="#46474C" stroke-linecap="round" stroke-linejoin="round"/>
</g>
<path d="M6.21484 8.83315C6.21484 9.7011 7.6218 10.4046 9.3577 10.4046C11.0936 10.4046 12.5006 9.7011 12.5006 8.83315C12.5006 7.96519 11.0936 7.26172 9.3577 7.26172C7.6218 7.26172 6.21484 7.96519 6.21484 8.83315Z" stroke="#46474C" stroke-width="1.2" stroke-linecap="round" stroke-linejoin="round"/>
<path d="M6.21484 8.8335V10.9287C6.21484 11.7962 7.6218 12.5002 9.3577 12.5002C11.0936 12.5002 12.5006 11.7962 12.5006 10.9287V8.8335" stroke="#46474C" stroke-width="1.2" stroke-linecap="round" stroke-linejoin="round"/>
<defs>
<clipPath id="clip0_2908_70641">
<rect width="11" height="11" fill="white"/>
</clipPath>
</defs>
</svg>
