<svg width="27" height="27" viewBox="0 0 27 27" fill="none" xmlns="http://www.w3.org/2000/svg">
  <path d="M0 13.2C0 5.90987 5.90985 0 13.2 0C20.4902 0 26.4 5.90987 26.4 13.2C26.4 20.4902 20.4902 26.4001 13.2 26.4001C5.90985 26.4001 0 20.4902 0 13.2Z" fill="#DBEAFE" />
  <g clip-path="url(#clip0_19814_11456)">
    <path d="M15.2388 18.3111C15.1356 18.4142 14.9958 18.4721 14.8499 18.4721C14.7041 18.4721 14.5642 18.4142 14.4611 18.3111L13.5888 17.4388C13.4857 17.3356 13.4277 17.1958 13.4277 17.0499C13.4277 16.9041 13.4857 16.7642 13.5888 16.6611L16.6611 13.5888C16.7642 13.4857 16.9041 13.4277 17.0499 13.4277C17.1958 13.4277 17.3356 13.4857 17.4388 13.5888L18.3111 14.4611C18.4142 14.5642 18.4721 14.7041 18.4721 14.8499C18.4721 14.9958 18.4142 15.1356 18.3111 15.2388L15.2388 18.3111Z" stroke="#155DFC" stroke-width="1.1" stroke-linecap="round" stroke-linejoin="round" />
    <path d="M16.4999 13.7502L15.7437 9.9695C15.7231 9.86664 15.6736 9.7718 15.6009 9.69618C15.5282 9.62056 15.4354 9.56731 15.3334 9.5427L8.3792 7.7156C8.28759 7.69345 8.19182 7.69521 8.10108 7.72073C8.01035 7.74624 7.92769 7.79464 7.86104 7.86129C7.79439 7.92793 7.74599 8.01059 7.72048 8.10133C7.69497 8.19206 7.6932 8.28783 7.71535 8.37945L9.54245 15.3336C9.56706 15.4356 9.62032 15.5284 9.69594 15.6011C9.77156 15.6738 9.86639 15.7234 9.96925 15.7439L13.75 16.5002" stroke="#155DFC" stroke-width="1.1" stroke-linecap="round" stroke-linejoin="round" />
    <path d="M7.86499 7.86523L11.8723 11.8725" stroke="#155DFC" stroke-width="1.1" stroke-linecap="round" stroke-linejoin="round" />
    <path d="M12.6499 13.7503C13.2574 13.7503 13.7499 13.2578 13.7499 12.6503C13.7499 12.0428 13.2574 11.5503 12.6499 11.5503C12.0424 11.5503 11.5499 12.0428 11.5499 12.6503C11.5499 13.2578 12.0424 13.7503 12.6499 13.7503Z" stroke="#155DFC" stroke-width="1.1" stroke-linecap="round" stroke-linejoin="round" />
  </g>
  <defs>
    <clipPath id="clip0_19814_11456">
      <rect width="13.2" height="13.2" fill="white" transform="translate(6.59998 6.6001)" />
    </clipPath>
  </defs>
</svg>
