<svg width="16" height="16" viewBox="0 0 16 16" fill="none" xmlns="http://www.w3.org/2000/svg">
<path d="M1 6.62877H15M4.55556 10.0573H4.56444M8.11111 10.0573H9.88889M1 5.25734C1 4.71175 1.28095 4.18851 1.78105 3.80272C2.28115 3.41693 2.95942 3.2002 3.66667 3.2002H12.3333C13.0406 3.2002 13.7189 3.41693 14.219 3.80272C14.7191 4.18851 15 4.71175 15 5.25734V10.7431C15 11.2886 14.7191 11.8119 14.219 12.1977C13.7189 12.5835 13.0406 12.8002 12.3333 12.8002H3.66667C2.95942 12.8002 2.28115 12.5835 1.78105 12.1977C1.28095 11.8119 1 11.2886 1 10.7431V5.25734Z" stroke="#46474C" stroke-width="1.2" stroke-linecap="round" stroke-linejoin="round"/>
</svg>
