<svg xmlns="http://www.w3.org/2000/svg" width="24" height="24" viewBox="0 0 24 24" fill="none">
  <path d="M13.0708 2.03021C13.0708 2.03021 14.2269 2.475 16.3519 4.6125C18.4692 6.74215 18.9132 7.90715 18.9164 7.91565C18.968 8.93045 19 10.1173 19 11.5C19 15.6256 18.715 18.007 18.475 19.2808C18.3209 20.0991 17.6861 20.66 16.8629 20.7494C15.7516 20.87 13.7906 21 10.5 21C7.20935 21 5.2484 20.87 4.13713 20.7494C3.31388 20.66 2.67907 20.0991 2.52493 19.2808C2.28499 18.007 2 15.6256 2 11.5C2 7.3744 2.28499 4.99302 2.52493 3.71919C2.67907 2.90085 3.31387 2.33996 4.13712 2.2506C5.2484 2.12999 7.20935 2 10.5 2C11.4679 2 12.3208 2.01127 13.0708 2.03021Z" fill="#B18CFE"/>
  <path d="M18.9166 7.91575C17.5568 8.25975 15.9514 8.2826 14.5647 7.8565C13.9784 7.67635 13.5213 7.21695 13.3235 6.63335C12.8305 5.17955 12.7088 3.40001 13.071 2.03027C13.071 2.03027 14.2272 2.47506 16.3522 4.61256C18.4772 6.75005 18.9166 7.91575 18.9166 7.91575Z" fill="#371A94"/>
  <path d="M21.9494 16.3196C22.6835 15.638 22.6835 14.5328 21.9494 13.8511L20.5065 12.5112C19.7724 11.8296 18.5821 11.8296 17.8481 12.5112L12.5506 17.4304C12.198 17.7577 12 18.2017 12 18.6646V20.8772C12 21.3592 12.4208 21.75 12.9399 21.75H15.3227C15.8212 21.75 16.2994 21.5661 16.6519 21.2387L21.9494 16.3196Z" fill="#371A94"/>
</svg>
