<svg width="80" height="80" viewBox="0 0 80 80" fill="none" xmlns="http://www.w3.org/2000/svg">
<path d="M15.0039 22.418C15.0039 20.3838 15.0039 19.3666 15.4061 18.5924C15.745 17.94 16.2769 17.4081 16.9293 17.0692C17.7035 16.667 18.7207 16.667 20.7549 16.667H35.7661C36.6315 16.667 37.0641 16.667 37.4722 16.7642C37.8191 16.8468 38.1517 16.9809 38.4589 17.162C38.8203 17.3751 39.1319 17.6752 39.7553 18.2754L40.1241 18.6306C40.7474 19.2309 41.0591 19.531 41.4204 19.744C41.7276 19.9252 42.0602 20.0593 42.4071 20.1419C42.8152 20.2391 43.2479 20.2391 44.1132 20.2391H59.2618C61.2961 20.2391 62.3132 20.2391 63.0874 20.6412C63.7398 20.9801 64.2718 21.5121 64.6107 22.1645C65.0128 22.9387 65.0128 23.9558 65.0128 25.9901V60.2283C65.0128 61.2455 65.0128 61.754 64.8117 62.1411C64.6423 62.4673 64.3763 62.7333 64.0501 62.9028C63.663 63.1038 63.1544 63.1038 62.1373 63.1038H20.1798C18.349 63.1038 17.4336 63.1038 16.7368 62.7419C16.1496 62.4369 15.6709 61.9581 15.3659 61.371C15.0039 60.6742 15.0039 59.7588 15.0039 57.9279V22.418Z" fill="url(#paint0_linear_3366_73802)"/>
<foreignObject x="11.432" y="22.0248" width="67.1779" height="48.2228"><div xmlns="http://www.w3.org/1999/xhtml" style="backdrop-filter:blur(3.57px);clip-path:url(#bgblur_0_3366_73802_clip_path);height:100%;width:100%"></div></foreignObject><path data-figma-bg-blur-radius="7.14413" d="M33.0498 29.3359H65.9941C67.4234 29.3359 68.4773 29.3357 69.2686 29.4492C70.0554 29.5621 70.5503 29.7835 70.8877 30.1992C71.2249 30.6149 71.3387 31.1445 71.2871 31.9375C71.2352 32.7353 71.0191 33.7672 70.7246 35.166L65.6855 59.0986C65.4845 60.0537 65.3364 60.7556 65.1543 61.2891C64.9737 61.8178 64.7657 62.1629 64.4551 62.415C64.1442 62.6673 63.763 62.8004 63.208 62.8682C62.6484 62.9365 61.9311 62.9365 60.9551 62.9365H18.9434C19.7305 61.9956 20.1594 61.0178 20.583 59.6357C20.815 58.8789 21.0469 57.9958 21.335 56.9307C21.6234 55.8641 21.9696 54.6106 22.4307 53.1064C23.7567 48.7803 26.7948 38.3631 28.4053 32.8232C28.6589 31.9508 28.8448 31.3101 29.0498 30.8242C29.2531 30.3423 29.4683 30.0289 29.7695 29.8027C30.0708 29.5766 30.4318 29.4582 30.9512 29.3975C31.4748 29.3363 32.1416 29.3359 33.0498 29.3359Z" fill="#E0E2FF" fill-opacity="0.6" stroke="url(#paint1_linear_3366_73802)" stroke-width="0.333333"/>
<path d="M23.9341 20.3721H31.0776C31.9904 20.3721 32.731 21.1117 32.731 22.0244C32.7309 22.9371 31.9904 23.6768 31.0776 23.6768H23.9341C23.0214 23.6768 22.2818 22.9371 22.2817 22.0244C22.2817 21.1117 23.0213 20.3721 23.9341 20.3721Z" fill="url(#paint2_linear_3366_73802)" fill-opacity="0.9" stroke="url(#paint3_linear_3366_73802)" stroke-width="0.266667"/>
<defs>
<clipPath id="bgblur_0_3366_73802_clip_path" transform="translate(-11.432 -22.0248)"><path d="M33.0498 29.3359H65.9941C67.4234 29.3359 68.4773 29.3357 69.2686 29.4492C70.0554 29.5621 70.5503 29.7835 70.8877 30.1992C71.2249 30.6149 71.3387 31.1445 71.2871 31.9375C71.2352 32.7353 71.0191 33.7672 70.7246 35.166L65.6855 59.0986C65.4845 60.0537 65.3364 60.7556 65.1543 61.2891C64.9737 61.8178 64.7657 62.1629 64.4551 62.415C64.1442 62.6673 63.763 62.8004 63.208 62.8682C62.6484 62.9365 61.9311 62.9365 60.9551 62.9365H18.9434C19.7305 61.9956 20.1594 61.0178 20.583 59.6357C20.815 58.8789 21.0469 57.9958 21.335 56.9307C21.6234 55.8641 21.9696 54.6106 22.4307 53.1064C23.7567 48.7803 26.7948 38.3631 28.4053 32.8232C28.6589 31.9508 28.8448 31.3101 29.0498 30.8242C29.2531 30.3423 29.4683 30.0289 29.7695 29.8027C30.0708 29.5766 30.4318 29.4582 30.9512 29.3975C31.4748 29.3363 32.1416 29.3359 33.0498 29.3359Z"/>
</clipPath><linearGradient id="paint0_linear_3366_73802" x1="29.4296" y1="26.8251" x2="67.1634" y2="40.7996" gradientUnits="userSpaceOnUse">
<stop stop-color="#C2C4FF"/>
<stop offset="1" stop-color="#A3A7FF"/>
</linearGradient>
<linearGradient id="paint1_linear_3366_73802" x1="15.8971" y1="31.5928" x2="34.8372" y2="77.2665" gradientUnits="userSpaceOnUse">
<stop stop-color="white"/>
<stop offset="0.765625" stop-color="white" stop-opacity="0"/>
</linearGradient>
<linearGradient id="paint2_linear_3366_73802" x1="21.3335" y1="19.9996" x2="36.0002" y2="24.3329" gradientUnits="userSpaceOnUse">
<stop stop-color="white"/>
<stop offset="1" stop-color="white" stop-opacity="0"/>
</linearGradient>
<linearGradient id="paint3_linear_3366_73802" x1="20.3335" y1="20.9996" x2="27.506" y2="23.8103" gradientUnits="userSpaceOnUse">
<stop stop-color="white"/>
<stop offset="1" stop-color="white" stop-opacity="0"/>
</linearGradient>
</defs>
</svg>
