<svg xmlns="http://www.w3.org/2000/svg" width="14" height="14" viewBox="0 0 14 14" fill="none">
  <path d="M0.600098 6.59961C0.600098 7.38754 0.755292 8.16776 1.05682 8.89571C1.35835 9.62366 1.80031 10.2851 2.35746 10.8422C2.91461 11.3994 3.57604 11.8414 4.304 12.1429C5.03195 12.4444 5.81217 12.5996 6.6001 12.5996C7.38803 12.5996 8.16824 12.4444 8.8962 12.1429C9.62415 11.8414 10.2856 11.3994 10.8427 10.8422C11.3999 10.2851 11.8418 9.62366 12.1434 8.89571C12.4449 8.16776 12.6001 7.38754 12.6001 6.59961C12.6001 5.00831 11.968 3.48219 10.8427 2.35697C9.71752 1.23175 8.1914 0.599609 6.6001 0.599609C5.0088 0.599609 3.48268 1.23175 2.35746 2.35697C1.23224 3.48219 0.600098 5.00831 0.600098 6.59961Z" stroke="#46474C" stroke-width="1.2" stroke-linecap="round" stroke-linejoin="round"/>
  <path d="M6.6001 3.93262V6.59928" stroke="#46474C" stroke-width="1.2" stroke-linecap="round" stroke-linejoin="round"/>
  <path d="M6.6001 9.2666H6.60565" stroke="#46474C" stroke-width="1.2" stroke-linecap="round" stroke-linejoin="round"/>
</svg>
