<svg width="20" height="20" viewBox="0 0 20 20" fill="none" xmlns="http://www.w3.org/2000/svg">
<g clip-path="url(#clip0_7560_2682)">
<path d="M2.5 3.88086V8.46419H7.00032" fill="#171719"/>
<path d="M2.5 3.88086V8.46419H7.00032" stroke="#46474C" stroke-width="1.5" stroke-linecap="round" stroke-linejoin="round"/>
<path d="M4.38263 12.2845C4.86896 13.6904 5.79073 14.8972 7.00906 15.7231C8.22739 16.549 9.67627 16.9493 11.1374 16.8636C12.5985 16.778 13.9927 16.211 15.11 15.2482C16.2272 14.2854 17.007 12.9789 17.3317 11.5255C17.6565 10.0721 17.5086 8.55061 16.9105 7.19024C16.3123 5.82986 15.2963 4.70431 14.0154 3.98318C12.7346 3.26205 11.2583 2.98439 9.80903 3.19206C8.35975 3.39973 7.016 4.08146 5.98025 5.13454L2.5 8.46509" stroke="#46474C" stroke-width="1.5" stroke-linecap="round" stroke-linejoin="round"/>
</g>
<defs>
<clipPath id="clip0_7560_2682">
<rect width="20" height="20" fill="white"/>
</clipPath>
</defs>
</svg>
