<svg width="12" height="12" viewBox="0 0 12 12" fill="none" xmlns="http://www.w3.org/2000/svg">
<g clip-path="url(#clip0_3642_5157)">
<path d="M3.75 3H3.375C3.17609 3 2.98532 3.07902 2.84467 3.21967C2.70402 3.36032 2.625 3.55109 2.625 3.75V5.0625C2.625 5.60951 2.8423 6.13411 3.22909 6.52091C3.61589 6.9077 4.14049 7.125 4.6875 7.125C5.23451 7.125 5.75912 6.9077 6.14591 6.52091C6.53271 6.13411 6.75001 5.60951 6.75001 5.0625V3.75C6.75001 3.55109 6.67099 3.36032 6.53034 3.21967C6.38968 3.07902 6.19892 3 6.00001 3H5.62501" stroke="#46474C" stroke-width="1.2" stroke-linecap="round" stroke-linejoin="round"/>
<path d="M4.5 7.125C4.5 7.42047 4.5582 7.71306 4.67127 7.98604C4.78434 8.25902 4.95008 8.50706 5.15901 8.71599C5.36794 8.92492 5.61598 9.09066 5.88896 9.20373C6.16195 9.3168 6.45453 9.375 6.75 9.375C7.04548 9.375 7.33806 9.3168 7.61104 9.20373C7.88403 9.09066 8.13207 8.92492 8.341 8.71599C8.54993 8.50706 8.71566 8.25902 8.82874 7.98604C8.94181 7.71306 9.00001 7.42047 9.00001 7.125V6" stroke="#46474C" stroke-width="1.2" stroke-linecap="round" stroke-linejoin="round"/>
<path d="M5.625 2.625V3.375" stroke="#46474C" stroke-width="1.2" stroke-linecap="round" stroke-linejoin="round"/>
<path d="M3.75 2.625V3.375" stroke="#46474C" stroke-width="1.2" stroke-linecap="round" stroke-linejoin="round"/>
<path d="M8.25 5.25C8.25 5.44891 8.32902 5.63968 8.46967 5.78033C8.61032 5.92098 8.80109 6 9 6C9.19891 6 9.38968 5.92098 9.53033 5.78033C9.67098 5.63968 9.75 5.44891 9.75 5.25C9.75 5.05109 9.67098 4.86032 9.53033 4.71967C9.38968 4.57902 9.19891 4.5 9 4.5C8.80109 4.5 8.61032 4.57902 8.46967 4.71967C8.32902 4.86032 8.25 5.05109 8.25 5.25Z" stroke="#46474C" stroke-width="1.2" stroke-linecap="round" stroke-linejoin="round"/>
</g>
<defs>
<clipPath id="clip0_3642_5157">
<rect width="12" height="12" fill="white"/>
</clipPath>
</defs>
</svg>
