<svg width="18" height="18" viewBox="0 0 18 18" fill="none" xmlns="http://www.w3.org/2000/svg">
<path d="M11 1.4668H4.40001C4.01103 1.4668 3.63798 1.62132 3.36292 1.89637C3.08787 2.17142 2.93335 2.54448 2.93335 2.93346V14.6667C2.93335 15.0557 3.08787 15.4288 3.36292 15.7038C3.63798 15.9789 4.01103 16.1334 4.40001 16.1334H13.2C13.589 16.1334 13.962 15.9789 14.2371 15.7038C14.5121 15.4288 14.6666 15.0557 14.6666 14.6667V5.13345L11 1.4668Z" stroke="#4A5565" stroke-width="1.46666" stroke-linecap="round" stroke-linejoin="round"/>
<path d="M10.2666 1.4668V4.40012C10.2666 4.7891 10.4211 5.16215 10.6962 5.43721C10.9712 5.71226 11.3443 5.86678 11.7333 5.86678H14.6666" stroke="#4A5565" stroke-width="1.46666" stroke-linecap="round" stroke-linejoin="round"/>
<path d="M7.33336 6.6001H5.8667" stroke="#4A5565" stroke-width="1.46666" stroke-linecap="round" stroke-linejoin="round"/>
<path d="M11.7333 9.5332H5.8667" stroke="#4A5565" stroke-width="1.46666" stroke-linecap="round" stroke-linejoin="round"/>
<path d="M11.7333 12.4668H5.8667" stroke="#4A5565" stroke-width="1.46666" stroke-linecap="round" stroke-linejoin="round"/>
</svg>
