<svg width="16" height="16" viewBox="0 0 16 16" fill="none" xmlns="http://www.w3.org/2000/svg">
<g clip-path="url(#clip0_2896_79383)">
<path d="M6.28571 4H5.14286C4.83975 4 4.54906 4.11853 4.33474 4.3295C4.12041 4.54048 4 4.82663 4 5.125V11.875C4 12.1734 4.12041 12.4595 4.33474 12.6705C4.54906 12.8815 4.83975 13 5.14286 13H10.8571C11.1602 13 11.4509 12.8815 11.6653 12.6705C11.8796 12.4595 12 12.1734 12 11.875V5.125C12 4.82663 11.8796 4.54048 11.6653 4.3295C11.4509 4.11853 11.1602 4 10.8571 4H9.71429" stroke="#46474C" stroke-width="1.2" stroke-linecap="round" stroke-linejoin="round"/>
<path d="M6.22217 4.1111C6.22217 3.81642 6.33923 3.5338 6.5476 3.32543C6.75597 3.11706 7.03858 3 7.33326 3H8.44436C8.73904 3 9.02165 3.11706 9.23002 3.32543C9.43839 3.5338 9.55546 3.81642 9.55546 4.1111C9.55546 4.40578 9.43839 4.68839 9.23002 4.89676C9.02165 5.10513 8.73904 5.22219 8.44436 5.22219H7.33326C7.03858 5.22219 6.75597 5.10513 6.5476 4.89676C6.33923 4.68839 6.22217 4.40578 6.22217 4.1111Z" stroke="#46474C" stroke-width="1.2" stroke-linecap="round" stroke-linejoin="round"/>
<path d="M7 10.1111L7.55555 10.6666L9.22219 9" stroke="#46474C" stroke-width="1.2" stroke-linecap="round" stroke-linejoin="round"/>
</g>
<defs>
<clipPath id="clip0_2896_79383">
<rect width="16" height="16" fill="white"/>
</clipPath>
</defs>
</svg>
