<svg width="12" height="12" viewBox="0 0 12 12" fill="none" xmlns="http://www.w3.org/2000/svg">
<g clip-path="url(#clip0_1264_309)">
<path d="M3.19727 3.39469C3.19727 3.89719 3.39688 4.37911 3.75221 4.73444C4.10753 5.08976 4.58945 5.28938 5.09195 5.28938C5.59446 5.28938 6.07638 5.08976 6.4317 4.73444C6.78702 4.37911 6.98664 3.89719 6.98664 3.39469C6.98664 2.89219 6.78702 2.41026 6.4317 2.05494C6.07638 1.69962 5.59446 1.5 5.09195 1.5C4.58945 1.5 4.10753 1.69962 3.75221 2.05494C3.39688 2.41026 3.19727 2.89219 3.19727 3.39469Z" stroke="#46474C" stroke-width="1.2" stroke-linecap="round" stroke-linejoin="round"/>
<path d="M6.98682 9.0791H9.82885" stroke="#46474C" stroke-width="1.2" stroke-linecap="round" stroke-linejoin="round"/>
<path d="M8.40771 7.6582V10.5002" stroke="#46474C" stroke-width="1.2" stroke-linecap="round" stroke-linejoin="round"/>
<path d="M2.25 10.0264V9.07901C2.25 8.57651 2.44962 8.09459 2.80494 7.73927C3.16026 7.38394 3.64219 7.18433 4.14469 7.18433H6.03938" stroke="#46474C" stroke-width="1.2" stroke-linecap="round" stroke-linejoin="round"/>
</g>
<defs>
<clipPath id="clip0_1264_309">
<rect width="12" height="12" fill="white"/>
</clipPath>
</defs>
</svg>
