<svg width="16" height="16" viewBox="0 0 16 16" fill="none" xmlns="http://www.w3.org/2000/svg">
<g clip-path="url(#clip0_7779_27024)">
<path d="M3 8C3 8.65661 3.12933 9.30679 3.3806 9.91342C3.63188 10.52 4.00017 11.0712 4.46447 11.5355C4.92876 11.9998 5.47996 12.3681 6.08658 12.6194C6.69321 12.8707 7.34339 13 8 13C8.65661 13 9.30679 12.8707 9.91342 12.6194C10.52 12.3681 11.0712 11.9998 11.5355 11.5355C11.9998 11.0712 12.3681 10.52 12.6194 9.91342C12.8707 9.30679 13 8.65661 13 8C13 7.34339 12.8707 6.69321 12.6194 6.08658C12.3681 5.47996 11.9998 4.92876 11.5355 4.46447C11.0712 4.00017 10.52 3.63188 9.91342 3.3806C9.30679 3.12933 8.65661 3 8 3C7.34339 3 6.69321 3.12933 6.08658 3.3806C5.47996 3.63188 4.92876 4.00017 4.46447 4.46447C4.00017 4.92876 3.63188 5.47996 3.3806 6.08658C3.12933 6.69321 3 7.34339 3 8Z" stroke="#46474C" stroke-width="1.2" stroke-linecap="round" stroke-linejoin="round"/>
<path d="M8 10.7773V10.7829" stroke="#46474C" stroke-width="1.2" stroke-linecap="round" stroke-linejoin="round"/>
<path d="M7.99978 8.83299C7.98955 8.65264 8.0382 8.47385 8.1384 8.32355C8.2386 8.17325 8.38493 8.05958 8.55534 7.99966C8.76416 7.9198 8.95159 7.79257 9.10288 7.62797C9.25417 7.46336 9.36518 7.26589 9.42718 7.0511C9.48919 6.8363 9.50049 6.61004 9.46019 6.39014C9.41989 6.17023 9.3291 5.96269 9.19496 5.78383C9.06082 5.60498 8.88699 5.4597 8.68717 5.35945C8.48734 5.25919 8.26697 5.20668 8.04341 5.20606C7.81984 5.20544 7.59919 5.25672 7.39881 5.35587C7.19843 5.45502 7.0238 5.59933 6.88867 5.77744" stroke="#46474C" stroke-width="1.2" stroke-linecap="round" stroke-linejoin="round"/>
</g>
<defs>
<clipPath id="clip0_7779_27024">
<rect width="16" height="16" fill="white"/>
</clipPath>
</defs>
</svg>
