<svg width="12" height="12" viewBox="0 0 12 12" fill="none" xmlns="http://www.w3.org/2000/svg">
<g clip-path="url(#clip0_3367_7119)">
<path d="M2.5 2H4.5L6 3.5H9.5C9.76522 3.5 10.0196 3.60536 10.2071 3.79289C10.3946 3.98043 10.5 4.23478 10.5 4.5V8.5C10.5 8.76522 10.3946 9.01957 10.2071 9.20711C10.0196 9.39464 9.76522 9.5 9.5 9.5H2.5C2.23478 9.5 1.98043 9.39464 1.79289 9.20711C1.60536 9.01957 1.5 8.76522 1.5 8.5V3C1.5 2.73478 1.60536 2.48043 1.79289 2.29289C1.98043 2.10536 2.23478 2 2.5 2Z" stroke="#292A2D" stroke-width="1.2" stroke-linecap="round" stroke-linejoin="round"/>
</g>
<defs>
<clipPath id="clip0_3367_7119">
<rect width="12" height="12" fill="white"/>
</clipPath>
</defs>
</svg>
