<svg width="16" height="16" viewBox="0 0 16 16" fill="none" xmlns="http://www.w3.org/2000/svg">
<g clip-path="url(#clip0_4640_56790)">
<path d="M3.5 5C3.5 5.66304 3.76339 6.29893 4.23223 6.76777C4.70107 7.23661 5.33696 7.5 6 7.5C6.66304 7.5 7.29893 7.23661 7.76777 6.76777C8.23661 6.29893 8.5 5.66304 8.5 5C8.5 4.33696 8.23661 3.70107 7.76777 3.23223C7.29893 2.76339 6.66304 2.5 6 2.5C5.33696 2.5 4.70107 2.76339 4.23223 3.23223C3.76339 3.70107 3.5 4.33696 3.5 5Z" stroke="#70737C" stroke-width="1.2" stroke-linecap="round" stroke-linejoin="round"/>
<path d="M2.5 13.5V12.1667C2.5 11.4594 2.74583 10.7811 3.18342 10.281C3.621 9.78095 4.21449 9.5 4.83333 9.5H7.16667C7.7855 9.5 8.379 9.78095 8.81658 10.281C9.25417 10.7811 9.5 11.4594 9.5 12.1667V13.5" stroke="#70737C" stroke-width="1.2" stroke-linecap="round" stroke-linejoin="round"/>
<path d="M10.5 2.5C11.0721 2.64213 11.5792 2.96497 11.9413 3.41762C12.3034 3.87027 12.5 4.42699 12.5 5C12.5 5.57301 12.3034 6.12973 11.9413 6.58238C11.5792 7.03503 11.0721 7.35787 10.5 7.5" stroke="#70737C" stroke-width="1.2" stroke-linecap="round" stroke-linejoin="round"/>
<path d="M13.5 13.5V12.1325C13.4966 11.5288 13.2986 10.9433 12.9368 10.4671C12.5751 9.99094 12.0699 9.65091 11.5 9.5" stroke="#70737C" stroke-width="1.2" stroke-linecap="round" stroke-linejoin="round"/>
</g>
<defs>
<clipPath id="clip0_4640_56790">
<rect width="16" height="16" fill="white"/>
</clipPath>
</defs>
</svg>
