<svg width="16" height="17" viewBox="0 0 16 17" fill="none" xmlns="http://www.w3.org/2000/svg">
<g clip-path="url(#clip0_5127_4315)">
<path d="M7.05834 7.55859C6.80833 7.80869 6.66791 8.14786 6.66797 8.5015C6.66803 8.85513 6.80857 9.19425 7.05867 9.44426C7.30877 9.69427 7.64794 9.83469 8.00157 9.83463C8.3552 9.83457 8.69433 9.69403 8.94434 9.44393" stroke="#989BA2" stroke-width="1.2" stroke-linecap="round" stroke-linejoin="round"/>
<path d="M11.1207 11.6154C10.1855 12.2005 9.1031 12.5073 8 12.5C5.6 12.5 3.6 11.1667 2 8.50002C2.848 7.08669 3.808 6.04802 4.88 5.38402M6.78667 4.62002C7.18603 4.53917 7.59254 4.49897 8 4.50002C10.4 4.50002 12.4 5.83335 14 8.50002C13.556 9.24002 13.0807 9.87802 12.5747 10.4134" stroke="#989BA2" stroke-width="1.2" stroke-linecap="round" stroke-linejoin="round"/>
<path d="M3 3.5L13 13.5" stroke="#989BA2" stroke-width="1.2" stroke-linecap="round" stroke-linejoin="round"/>
</g>
<defs>
<clipPath id="clip0_5127_4315">
<rect width="16" height="16" fill="white" transform="translate(0 0.5)"/>
</clipPath>
</defs>
</svg>
