<svg width="16" height="16" viewBox="0 0 16 16" fill="none" xmlns="http://www.w3.org/2000/svg">
<g clip-path="url(#clip0_4522_87043)">
<path d="M3 4.25C3 3.91848 3.1317 3.60054 3.36612 3.36612C3.60054 3.1317 3.91848 3 4.25 3H11.75C12.0815 3 12.3995 3.1317 12.6339 3.36612C12.8683 3.60054 13 3.91848 13 4.25V11.75C13 12.0815 12.8683 12.3995 12.6339 12.6339C12.3995 12.8683 12.0815 13 11.75 13H4.25C3.91848 13 3.60054 12.8683 3.36612 12.6339C3.1317 12.3995 3 12.0815 3 11.75V4.25Z" stroke="#C2C4C8" stroke-width="1.2" stroke-linecap="round" stroke-linejoin="round"/>
<path d="M3 6.33203H13" stroke="#C2C4C8" stroke-width="1.2" stroke-linecap="round" stroke-linejoin="round"/>
<path d="M3 9.83203L13 9.83203" stroke="#C2C4C8" stroke-width="1.2" stroke-linecap="round" stroke-linejoin="round"/>
<path d="M8 3V13" stroke="#C2C4C8" stroke-width="1.2" stroke-linecap="round" stroke-linejoin="round"/>
</g>
<defs>
<clipPath id="clip0_4522_87043">
<rect width="16" height="16" fill="white"/>
</clipPath>
</defs>
</svg>
