<svg xmlns="http://www.w3.org/2000/svg" width="20" height="20" viewBox="0 0 20 20" fill="none">
  <path d="M11.3975 2.52539C11.9554 2.5254 12.4902 2.74713 12.8848 3.1416C13.2793 3.53615 13.5019 4.07094 13.502 4.62891V5.5332H16.6621C16.9933 5.53326 17.2615 5.80168 17.2617 6.13281C17.2617 6.46415 16.9934 6.73237 16.6621 6.73242H15.7129L15.0039 15.9561C14.992 16.4972 14.7732 17.0138 14.3896 17.3975C13.9951 17.792 13.4594 18.0137 12.9014 18.0137H6.88477C6.32691 18.0135 5.79194 17.7919 5.39746 17.3975C5.01385 17.0138 4.79506 16.4973 4.7832 15.9561L4.07324 6.73242H3.125C2.79363 6.73242 2.52539 6.46418 2.52539 6.13281C2.52563 5.80165 2.79378 5.5332 3.125 5.5332H6.28516V4.62891C6.28521 4.07106 6.50698 3.53613 6.90137 3.1416C7.29592 2.74705 7.83168 2.52544 8.38965 2.52539H11.3975ZM5.97949 15.8643C5.98065 15.8795 5.98145 15.8949 5.98145 15.9102C5.9815 16.1498 6.07668 16.3793 6.24609 16.5488C6.41553 16.7183 6.64517 16.8143 6.88477 16.8145H12.9014C13.1411 16.8145 13.3715 16.7183 13.541 16.5488C13.7103 16.3794 13.8056 16.1497 13.8057 15.9102C13.8057 15.8949 13.8065 15.8795 13.8076 15.8643L14.5098 6.7334H5.27734L5.97949 15.8643ZM8.38965 3.72461C8.14994 3.72466 7.91951 3.82073 7.75 3.99023C7.58066 4.15971 7.48541 4.38932 7.48535 4.62891V5.5332H12.3018V4.62891C12.3017 4.38939 12.2064 4.1597 12.0371 3.99023C11.8676 3.82075 11.6372 3.72462 11.3975 3.72461H8.38965Z" fill="#70737C"/>
</svg>
