<svg width="12" height="12" viewBox="0 0 12 12" fill="none" xmlns="http://www.w3.org/2000/svg">
<path d="M8.2002 3.79883H7.7002C7.7002 4.07497 7.92405 4.29883 8.2002 4.29883V3.79883ZM11.5 3.79883H12C12 3.52269 11.7761 3.29883 11.5 3.29883V3.79883ZM11.5 8.19922V8.69922C11.7761 8.69922 12 8.47536 12 8.19922H11.5ZM8.2002 8.19922V7.69922C7.92405 7.69922 7.7002 7.92308 7.7002 8.19922H8.2002ZM8.2002 11.5V12C8.47634 12 8.7002 11.7761 8.7002 11.5H8.2002ZM3.7998 11.5H3.2998C3.2998 11.7761 3.52366 12 3.7998 12V11.5ZM3.7998 8.19922H4.2998C4.2998 7.92308 4.07595 7.69922 3.7998 7.69922V8.19922ZM0.5 8.19922H0C0 8.47536 0.223858 8.69922 0.5 8.69922L0.5 8.19922ZM0.5 3.79883V3.29883C0.223858 3.29883 0 3.52269 0 3.79883H0.5ZM3.7998 3.79883V4.29883C4.07595 4.29883 4.2998 4.07497 4.2998 3.79883H3.7998ZM3.7998 0.5V0C3.52366 0 3.2998 0.223858 3.2998 0.5L3.7998 0.5ZM8.2002 0.5H8.7002C8.7002 0.223858 8.47634 0 8.2002 0V0.5ZM8.2002 3.79883V4.29883H11.5V3.79883V3.29883H8.2002V3.79883ZM11.5 3.79883H11V8.19922H11.5H12V3.79883H11.5ZM11.5 8.19922V7.69922H8.2002V8.19922V8.69922H11.5V8.19922ZM8.2002 8.19922H7.7002V11.5H8.2002H8.7002V8.19922H8.2002ZM8.2002 11.5V11H3.7998V11.5V12H8.2002V11.5ZM3.7998 11.5H4.2998V8.19922H3.7998H3.2998V11.5H3.7998ZM3.7998 8.19922V7.69922H0.5V8.19922V8.69922H3.7998V8.19922ZM0.5 8.19922H1V3.79883H0.5H0V8.19922H0.5ZM0.5 3.79883V4.29883H3.7998V3.79883V3.29883H0.5V3.79883ZM3.7998 3.79883H4.2998V0.5H3.7998H3.2998V3.79883H3.7998ZM3.7998 0.5V1H8.2002V0.5V0H3.7998V0.5ZM8.2002 0.5H7.7002V3.79883H8.2002H8.7002V0.5H8.2002Z" fill="#FF6F2D"/>
</svg>
