<svg width="80" height="80" viewBox="0 0 80 80" fill="none" xmlns="http://www.w3.org/2000/svg">
<rect x="0.5" y="0.5" width="79" height="79" rx="5.5" fill="white"/>
<rect x="0.5" y="0.5" width="79" height="79" rx="5.5" stroke="#DDDDDD"/>
<path d="M44.6667 24H35.3333C34.597 24 34 24.597 34 25.3333V34.6667C34 35.403 34.597 36 35.3333 36H44.6667C45.403 36 46 35.403 46 34.6667V25.3333C46 24.597 45.403 24 44.6667 24Z" stroke="#999999" stroke-width="1.5" stroke-linecap="round" stroke-linejoin="round"/>
<path d="M37.6666 28.6666C38.2189 28.6666 38.6666 28.2189 38.6666 27.6666C38.6666 27.1143 38.2189 26.6666 37.6666 26.6666C37.1143 26.6666 36.6666 27.1143 36.6666 27.6666C36.6666 28.2189 37.1143 28.6666 37.6666 28.6666Z" stroke="#999999" stroke-width="2" stroke-linecap="round" stroke-linejoin="round"/>
<path d="M46 32L42.6667 28.6666L35.3334 36" stroke="#999999" stroke-width="1.5" stroke-linecap="round" stroke-linejoin="round"/>
<path d="M24.6484 44.1094V52.8105H23.877V44.1094H24.6484ZM20.0293 44.7832C21.3184 44.793 22.2461 45.9648 22.2461 47.8105C22.2461 49.6562 21.3184 50.8281 20.0293 50.8281C18.7305 50.8281 17.8125 49.6562 17.8125 47.8105C17.8125 45.9648 18.7305 44.793 20.0293 44.7832ZM20.0293 45.4668C19.1602 45.4766 18.5547 46.3945 18.5547 47.8105C18.5547 49.2266 19.1602 50.1445 20.0293 50.1445C20.8984 50.1445 21.5039 49.2266 21.5039 47.8105C21.5039 46.3945 20.8984 45.4766 20.0293 45.4668ZM30.6543 44.9688V50.6133H26.6406V44.9688H30.6543ZM27.3926 45.584V49.9883H29.9023V45.584H27.3926ZM33.291 44.1094V52.8105H32.5195V44.1094H33.291ZM37.8809 46.7754C37.8809 48.25 38.9551 49.7441 40.2344 50.3008L39.8047 50.9062C38.7891 50.4424 37.9102 49.4414 37.5098 48.2402C37.0996 49.5146 36.2256 50.623 35.2344 51.1211L34.7754 50.5156C36.0156 49.9199 37.0996 48.2793 37.1094 46.7754V45.6426H35.0586V45.0078H39.9512V45.6426H37.8809V46.7754ZM41.9336 44.1094V52.791H41.1621V44.1094H41.9336ZM53.8379 49.3633V50.0078H50.2539V52.8105H49.502V50.0078H45.9277V49.3633H53.8379ZM50.2637 45.8281C50.2637 46.9121 51.7773 47.8594 53.3301 48.0742L53.0469 48.6895C51.7041 48.4844 50.4395 47.8105 49.8926 46.8633C49.3359 47.8203 48.0518 48.4844 46.709 48.6895L46.4258 48.0742C47.9688 47.8594 49.502 46.9219 49.502 45.8281V45.8184H46.6992V45.1934H49.502V44.1094H50.2539V45.1934H53.0762V45.8184H50.2637V45.8281ZM61.2891 44.1094V47.6445H62.6953V48.2891H61.2891V52.791H60.5273V44.1094H61.2891ZM59.043 45.0469C59.043 47.5078 57.8906 49.7441 55.0586 51.1406L54.6289 50.5352C56.875 49.417 58.0957 47.7471 58.2715 45.6914H55.0293V45.0469H59.043Z" fill="#999999"/>
</svg>
