<svg width="10" height="10" viewBox="0 0 10 10" fill="none" xmlns="http://www.w3.org/2000/svg">
<path d="M4.25 5.75H0.75C0.5375 5.75 0.359375 5.67854 0.215625 5.53562C0.0718751 5.39271 0 5.21562 0 5.00437C0 4.79313 0.0718751 4.61458 0.215625 4.46875C0.359375 4.32292 0.5375 4.25 0.75 4.25H4.25V0.75C4.25 0.5375 4.32146 0.359375 4.46438 0.215624C4.60729 0.0718745 4.78438 0 4.99563 0C5.20688 0 5.38542 0.0718745 5.53125 0.215624C5.67708 0.359375 5.75 0.5375 5.75 0.75V4.25H9.25C9.4625 4.25 9.64063 4.32146 9.78438 4.46438C9.92813 4.60729 10 4.78438 10 4.99563C10 5.20688 9.92813 5.38542 9.78438 5.53125C9.64063 5.67708 9.4625 5.75 9.25 5.75H5.75V9.25C5.75 9.4625 5.67854 9.64062 5.53562 9.78438C5.39271 9.92813 5.21562 10 5.00437 10C4.79313 10 4.61458 9.92813 4.46875 9.78438C4.32292 9.64062 4.25 9.4625 4.25 9.25V5.75Z" fill="#999999"/>
</svg>
