<svg width="20" height="20" viewBox="0 0 20 20" fill="none" xmlns="http://www.w3.org/2000/svg">
<mask id="mask0_2308_3479" style="mask-type:alpha" maskUnits="userSpaceOnUse" x="0" y="0" width="20" height="20">
<rect width="20" height="20" fill="#D9D9D9"/>
</mask>
<g mask="url(#mask0_2308_3479)">
<path d="M4.64286 6.36364C4.46071 6.36364 4.30804 6.29867 4.18482 6.16875C4.06161 6.03883 4 5.87784 4 5.6858C4 5.49375 4.06161 5.33144 4.18482 5.19886C4.30804 5.06629 4.46071 5 4.64286 5H15.3571C15.5393 5 15.692 5.06496 15.8152 5.19489C15.9384 5.32481 16 5.4858 16 5.67784C16 5.86989 15.9384 6.0322 15.8152 6.16477C15.692 6.29735 15.5393 6.36364 15.3571 6.36364H4.64286ZM4.64286 15C4.46071 15 4.30804 14.935 4.18482 14.8051C4.06161 14.6752 4 14.5142 4 14.3222C4 14.1301 4.06161 13.9678 4.18482 13.8352C4.30804 13.7027 4.46071 13.6364 4.64286 13.6364H15.3571C15.5393 13.6364 15.692 13.7013 15.8152 13.8313C15.9384 13.9612 16 14.1222 16 14.3142C16 14.5062 15.9384 14.6686 15.8152 14.8011C15.692 14.9337 15.5393 15 15.3571 15H4.64286ZM4.64286 10.6818C4.46071 10.6818 4.30804 10.6169 4.18482 10.4869C4.06161 10.357 4 10.196 4 10.004C4 9.81193 4.06161 9.64962 4.18482 9.51705C4.30804 9.38447 4.46071 9.31818 4.64286 9.31818H15.3571C15.5393 9.31818 15.692 9.38314 15.8152 9.51307C15.9384 9.64299 16 9.80398 16 9.99602C16 10.1881 15.9384 10.3504 15.8152 10.483C15.692 10.6155 15.5393 10.6818 15.3571 10.6818H4.64286Z" fill="#999999"/>
</g>
</svg>
