<svg width="12" height="12" viewBox="0 0 12 12" fill="none" xmlns="http://www.w3.org/2000/svg">
<mask id="mask0_2308_3572" style="mask-type:alpha" maskUnits="userSpaceOnUse" x="0" y="0" width="12" height="12">
<rect x="0.5" y="0.5" width="11" height="11" fill="#D9D9D9"/>
</mask>
<g mask="url(#mask0_2308_3572)">
<path d="M4.07495 9.85003C3.84808 9.85003 3.65386 9.76924 3.49229 9.60768C3.33073 9.44612 3.24995 9.2519 3.24995 9.02503V3.52502H3.11245C2.99558 3.52502 2.89761 3.48572 2.81854 3.40712C2.73948 3.32851 2.69995 3.23112 2.69995 3.11493C2.69995 2.99874 2.73948 2.90055 2.81854 2.82034C2.89761 2.74013 2.99558 2.70002 3.11245 2.70002H4.89995V2.56252C4.89995 2.44565 4.93948 2.34768 5.01855 2.26862C5.09761 2.18956 5.19558 2.15002 5.31245 2.15002H6.68745C6.80433 2.15002 6.9023 2.18956 6.98136 2.26862C7.06042 2.34768 7.09995 2.44565 7.09995 2.56252V2.70002H8.88745C9.00433 2.70002 9.1023 2.73933 9.18136 2.81793C9.26042 2.89653 9.29995 2.99393 9.29995 3.11012C9.29995 3.22631 9.26042 3.3245 9.18136 3.40471C9.1023 3.48492 9.00433 3.52502 8.88745 3.52502H8.74995V9.0201C8.74995 9.25255 8.66917 9.44898 8.50761 9.6094C8.34605 9.76982 8.15183 9.85003 7.92495 9.85003H4.07495ZM7.92495 3.52502H4.07495V9.02503H7.92495V3.52502ZM5.31005 8.20003C5.42623 8.20003 5.52443 8.16049 5.60464 8.08143C5.68485 8.00237 5.72495 7.9044 5.72495 7.78753V4.76252C5.72495 4.64565 5.68565 4.54768 5.60704 4.46862C5.52844 4.38956 5.43105 4.35002 5.31486 4.35002C5.19867 4.35002 5.10047 4.38956 5.02026 4.46862C4.94006 4.54768 4.89995 4.64565 4.89995 4.76252V7.78753C4.89995 7.9044 4.93925 8.00237 5.01786 8.08143C5.09646 8.16049 5.19386 8.20003 5.31005 8.20003ZM6.68504 8.20003C6.80123 8.20003 6.89943 8.16049 6.97964 8.08143C7.05985 8.00237 7.09995 7.9044 7.09995 7.78753V4.76252C7.09995 4.64565 7.06065 4.54768 6.98205 4.46862C6.90344 4.38956 6.80605 4.35002 6.68986 4.35002C6.57367 4.35002 6.47547 4.38956 6.39526 4.46862C6.31506 4.54768 6.27495 4.64565 6.27495 4.76252V7.78753C6.27495 7.9044 6.31425 8.00237 6.39286 8.08143C6.47146 8.16049 6.56886 8.20003 6.68504 8.20003Z" fill="#999999"/>
</g>
</svg>
