<svg width="20" height="20" viewBox="0 0 20 20" fill="none" xmlns="http://www.w3.org/2000/svg">
<mask id="mask0_2308_3484" style="mask-type:alpha" maskUnits="userSpaceOnUse" x="0" y="0" width="20" height="20">
<rect width="20" height="20" fill="#D9D9D9"/>
</mask>
<g mask="url(#mask0_2308_3484)">
<path d="M3.75 17C3.5375 17 3.35938 16.9285 3.21563 16.7856C3.07188 16.6427 3 16.4656 3 16.2544C3 16.0431 3.07188 15.8646 3.21563 15.7188C3.35938 15.5729 3.5375 15.5 3.75 15.5H4.5V4.5C4.5 4.0875 4.64687 3.73438 4.94062 3.44063C5.23438 3.14688 5.5875 3 6 3H14C14.4125 3 14.7656 3.14688 15.0594 3.44063C15.3531 3.73438 15.5 4.0875 15.5 4.5V15.5H16.2456C16.4569 15.5 16.6354 15.5715 16.7812 15.7144C16.9271 15.8573 17 16.0344 17 16.2456C17 16.4569 16.9281 16.6354 16.7844 16.7812C16.6406 16.9271 16.4625 17 16.25 17H3.75ZM6 15.5H14V4.5H6V15.5ZM8.23979 10.5C8.45521 10.5 8.63576 10.4272 8.78146 10.2815C8.92715 10.1358 9 9.95521 9 9.73979C9 9.52437 8.92715 9.34722 8.78146 9.20833C8.63576 9.06944 8.45521 9 8.23979 9C8.02437 9 7.84722 9.06944 7.70833 9.20833C7.56944 9.34722 7.5 9.52437 7.5 9.73979C7.5 9.95521 7.56944 10.1358 7.70833 10.2815C7.84722 10.4272 8.02437 10.5 8.23979 10.5Z" fill="#999999"/>
</g>
</svg>
