<svg width="8" height="8" viewBox="0 0 8 8" fill="none" xmlns="http://www.w3.org/2000/svg">
<path d="M0.857143 7.14286H1.46429L5.92857 2.67857L5.32143 2.07143L0.857143 6.53571V7.14286ZM0.430714 8C0.310238 8 0.208333 7.95913 0.125 7.87738C0.0416667 7.79572 0 7.69444 0 7.57357V6.53964C0 6.42591 0.0198413 6.31746 0.0595238 6.21429C0.0992064 6.11111 0.162698 6.01587 0.25 5.92857L5.92857 0.25C6.01587 0.162698 6.11048 0.0992064 6.21238 0.0595238C6.31421 0.0198413 6.42135 0 6.53381 0C6.64619 0 6.75397 0.0198413 6.85714 0.0595238C6.96032 0.0992064 7.05556 0.162698 7.14286 0.25L7.75 0.857143C7.8373 0.944444 7.90079 1.03968 7.94048 1.14286C7.98016 1.24603 8 1.35135 8 1.45881C8 1.57349 7.98008 1.68278 7.94024 1.78667C7.9004 1.89056 7.83698 1.98548 7.75 2.07143L2.07143 7.75C1.98413 7.8373 1.88909 7.90079 1.78631 7.94048C1.68353 7.98016 1.57544 8 1.46202 8H0.430714ZM5.61964 2.38036L5.32143 2.07143L5.92857 2.67857L5.61964 2.38036Z" fill="#999999"/>
</svg>
