<svg width="16" height="16" viewBox="0 0 16 16" fill="none" xmlns="http://www.w3.org/2000/svg">
<mask id="mask0_2424_194" style="mask-type:alpha" maskUnits="userSpaceOnUse" x="0" y="0" width="16" height="16">
<rect width="16" height="16" fill="#D9D9D9"/>
</mask>
<g mask="url(#mask0_2424_194)">
<path d="M7.19999 8.40002V9.55002C7.19999 9.68335 7.24165 9.79168 7.32499 9.87502C7.40832 9.95835 7.51665 10 7.64999 10H8.34999C8.49443 10 8.60554 9.95835 8.68332 9.87502C8.7611 9.79168 8.79999 9.68335 8.79999 9.55002V8.40002H9.94999C10.0944 8.40002 10.2055 8.35835 10.2833 8.27502C10.3611 8.19168 10.4 8.08335 10.4 7.95002V7.25002C10.4 7.10557 10.3611 6.99446 10.2833 6.91668C10.2055 6.83891 10.0944 6.80002 9.94999 6.80002H8.79999V5.65002C8.79999 5.50557 8.7611 5.39446 8.68332 5.31668C8.60554 5.23891 8.49443 5.20002 8.34999 5.20002H7.64999C7.51665 5.20002 7.40832 5.23891 7.32499 5.31668C7.24165 5.39446 7.19999 5.50557 7.19999 5.65002V6.80002H6.04999C5.91665 6.80002 5.80832 6.83891 5.72499 6.91668C5.64165 6.99446 5.59999 7.10557 5.59999 7.25002V7.95002C5.59999 8.08335 5.64165 8.19168 5.72499 8.27502C5.80832 8.35835 5.91665 8.40002 6.04999 8.40002H7.19999ZM7.99999 14.3333C7.93332 14.3333 7.86665 14.3306 7.79999 14.325C7.73332 14.3195 7.67221 14.3056 7.61665 14.2833C6.1611 13.8056 4.99443 12.9222 4.11665 11.6333C3.23888 10.3445 2.79999 8.93891 2.79999 7.41668V4.41668C2.79999 4.16113 2.86943 3.93335 3.00832 3.73335C3.14721 3.53335 3.33332 3.38891 3.56665 3.30002L7.56665 1.76668C7.7111 1.71113 7.85554 1.68335 7.99999 1.68335C8.14443 1.68335 8.28888 1.71113 8.43332 1.76668L12.4333 3.30002C12.6667 3.38891 12.8528 3.53335 12.9917 3.73335C13.1305 3.93335 13.2 4.16113 13.2 4.41668V7.41668C13.2 8.93891 12.7611 10.3445 11.8833 11.6333C11.0055 12.9222 9.83888 13.8056 8.38332 14.2833C8.32777 14.3056 8.26665 14.3195 8.19999 14.325C8.13332 14.3306 8.06665 14.3333 7.99999 14.3333ZM7.99999 13.15C9.15554 12.7945 10.1111 12.0778 10.8667 11C11.6222 9.92224 12 8.72779 12 7.41668V4.41668L7.99999 2.88335L3.99999 4.41668V7.41668C3.99999 8.72779 4.37777 9.92224 5.13332 11C5.88888 12.0778 6.84443 12.7945 7.99999 13.15Z" fill="#333333"/>
<path d="M7.19999 8.40002V9.55002C7.19999 9.68335 7.24165 9.79168 7.32499 9.87502C7.40832 9.95835 7.51665 10 7.64999 10H8.34999C8.49443 10 8.60554 9.95835 8.68332 9.87502C8.7611 9.79168 8.79999 9.68335 8.79999 9.55002V8.40002H9.94999C10.0944 8.40002 10.2055 8.35835 10.2833 8.27502C10.3611 8.19168 10.4 8.08335 10.4 7.95002V7.25002C10.4 7.10557 10.3611 6.99446 10.2833 6.91668C10.2055 6.83891 10.0944 6.80002 9.94999 6.80002H8.79999V5.65002C8.79999 5.50557 8.7611 5.39446 8.68332 5.31668C8.60554 5.23891 8.49443 5.20002 8.34999 5.20002H7.64999C7.51665 5.20002 7.40832 5.23891 7.32499 5.31668C7.24165 5.39446 7.19999 5.50557 7.19999 5.65002V6.80002H6.04999C5.91665 6.80002 5.80832 6.83891 5.72499 6.91668C5.64165 6.99446 5.59999 7.10557 5.59999 7.25002V7.95002C5.59999 8.08335 5.64165 8.19168 5.72499 8.27502C5.80832 8.35835 5.91665 8.40002 6.04999 8.40002H7.19999ZM7.99999 14.3333C7.93332 14.3333 7.86665 14.3306 7.79999 14.325C7.73332 14.3195 7.67221 14.3056 7.61665 14.2833C6.1611 13.8056 4.99443 12.9222 4.11665 11.6333C3.23888 10.3445 2.79999 8.93891 2.79999 7.41668V4.41668C2.79999 4.16113 2.86943 3.93335 3.00832 3.73335C3.14721 3.53335 3.33332 3.38891 3.56665 3.30002L7.56665 1.76668C7.7111 1.71113 7.85554 1.68335 7.99999 1.68335C8.14443 1.68335 8.28888 1.71113 8.43332 1.76668L12.4333 3.30002C12.6667 3.38891 12.8528 3.53335 12.9917 3.73335C13.1305 3.93335 13.2 4.16113 13.2 4.41668V7.41668C13.2 8.93891 12.7611 10.3445 11.8833 11.6333C11.0055 12.9222 9.83888 13.8056 8.38332 14.2833C8.32777 14.3056 8.26665 14.3195 8.19999 14.325C8.13332 14.3306 8.06665 14.3333 7.99999 14.3333ZM7.99999 13.15C9.15554 12.7945 10.1111 12.0778 10.8667 11C11.6222 9.92224 12 8.72779 12 7.41668V4.41668L7.99999 2.88335L3.99999 4.41668V7.41668C3.99999 8.72779 4.37777 9.92224 5.13332 11C5.88888 12.0778 6.84443 12.7945 7.99999 13.15Z" fill="black" fill-opacity="0.2"/>
<path d="M7.19999 8.40002V9.55002C7.19999 9.68335 7.24165 9.79168 7.32499 9.87502C7.40832 9.95835 7.51665 10 7.64999 10H8.34999C8.49443 10 8.60554 9.95835 8.68332 9.87502C8.7611 9.79168 8.79999 9.68335 8.79999 9.55002V8.40002H9.94999C10.0944 8.40002 10.2055 8.35835 10.2833 8.27502C10.3611 8.19168 10.4 8.08335 10.4 7.95002V7.25002C10.4 7.10557 10.3611 6.99446 10.2833 6.91668C10.2055 6.83891 10.0944 6.80002 9.94999 6.80002H8.79999V5.65002C8.79999 5.50557 8.7611 5.39446 8.68332 5.31668C8.60554 5.23891 8.49443 5.20002 8.34999 5.20002H7.64999C7.51665 5.20002 7.40832 5.23891 7.32499 5.31668C7.24165 5.39446 7.19999 5.50557 7.19999 5.65002V6.80002H6.04999C5.91665 6.80002 5.80832 6.83891 5.72499 6.91668C5.64165 6.99446 5.59999 7.10557 5.59999 7.25002V7.95002C5.59999 8.08335 5.64165 8.19168 5.72499 8.27502C5.80832 8.35835 5.91665 8.40002 6.04999 8.40002H7.19999ZM7.99999 14.3333C7.93332 14.3333 7.86665 14.3306 7.79999 14.325C7.73332 14.3195 7.67221 14.3056 7.61665 14.2833C6.1611 13.8056 4.99443 12.9222 4.11665 11.6333C3.23888 10.3445 2.79999 8.93891 2.79999 7.41668V4.41668C2.79999 4.16113 2.86943 3.93335 3.00832 3.73335C3.14721 3.53335 3.33332 3.38891 3.56665 3.30002L7.56665 1.76668C7.7111 1.71113 7.85554 1.68335 7.99999 1.68335C8.14443 1.68335 8.28888 1.71113 8.43332 1.76668L12.4333 3.30002C12.6667 3.38891 12.8528 3.53335 12.9917 3.73335C13.1305 3.93335 13.2 4.16113 13.2 4.41668V7.41668C13.2 8.93891 12.7611 10.3445 11.8833 11.6333C11.0055 12.9222 9.83888 13.8056 8.38332 14.2833C8.32777 14.3056 8.26665 14.3195 8.19999 14.325C8.13332 14.3306 8.06665 14.3333 7.99999 14.3333ZM7.99999 13.15C9.15554 12.7945 10.1111 12.0778 10.8667 11C11.6222 9.92224 12 8.72779 12 7.41668V4.41668L7.99999 2.88335L3.99999 4.41668V7.41668C3.99999 8.72779 4.37777 9.92224 5.13332 11C5.88888 12.0778 6.84443 12.7945 7.99999 13.15Z" fill="black" fill-opacity="0.2"/>
<path d="M7.19999 8.40002V9.55002C7.19999 9.68335 7.24165 9.79168 7.32499 9.87502C7.40832 9.95835 7.51665 10 7.64999 10H8.34999C8.49443 10 8.60554 9.95835 8.68332 9.87502C8.7611 9.79168 8.79999 9.68335 8.79999 9.55002V8.40002H9.94999C10.0944 8.40002 10.2055 8.35835 10.2833 8.27502C10.3611 8.19168 10.4 8.08335 10.4 7.95002V7.25002C10.4 7.10557 10.3611 6.99446 10.2833 6.91668C10.2055 6.83891 10.0944 6.80002 9.94999 6.80002H8.79999V5.65002C8.79999 5.50557 8.7611 5.39446 8.68332 5.31668C8.60554 5.23891 8.49443 5.20002 8.34999 5.20002H7.64999C7.51665 5.20002 7.40832 5.23891 7.32499 5.31668C7.24165 5.39446 7.19999 5.50557 7.19999 5.65002V6.80002H6.04999C5.91665 6.80002 5.80832 6.83891 5.72499 6.91668C5.64165 6.99446 5.59999 7.10557 5.59999 7.25002V7.95002C5.59999 8.08335 5.64165 8.19168 5.72499 8.27502C5.80832 8.35835 5.91665 8.40002 6.04999 8.40002H7.19999ZM7.99999 14.3333C7.93332 14.3333 7.86665 14.3306 7.79999 14.325C7.73332 14.3195 7.67221 14.3056 7.61665 14.2833C6.1611 13.8056 4.99443 12.9222 4.11665 11.6333C3.23888 10.3445 2.79999 8.93891 2.79999 7.41668V4.41668C2.79999 4.16113 2.86943 3.93335 3.00832 3.73335C3.14721 3.53335 3.33332 3.38891 3.56665 3.30002L7.56665 1.76668C7.7111 1.71113 7.85554 1.68335 7.99999 1.68335C8.14443 1.68335 8.28888 1.71113 8.43332 1.76668L12.4333 3.30002C12.6667 3.38891 12.8528 3.53335 12.9917 3.73335C13.1305 3.93335 13.2 4.16113 13.2 4.41668V7.41668C13.2 8.93891 12.7611 10.3445 11.8833 11.6333C11.0055 12.9222 9.83888 13.8056 8.38332 14.2833C8.32777 14.3056 8.26665 14.3195 8.19999 14.325C8.13332 14.3306 8.06665 14.3333 7.99999 14.3333ZM7.99999 13.15C9.15554 12.7945 10.1111 12.0778 10.8667 11C11.6222 9.92224 12 8.72779 12 7.41668V4.41668L7.99999 2.88335L3.99999 4.41668V7.41668C3.99999 8.72779 4.37777 9.92224 5.13332 11C5.88888 12.0778 6.84443 12.7945 7.99999 13.15Z" fill="black" fill-opacity="0.2"/>
<path d="M7.19999 8.40002V9.55002C7.19999 9.68335 7.24165 9.79168 7.32499 9.87502C7.40832 9.95835 7.51665 10 7.64999 10H8.34999C8.49443 10 8.60554 9.95835 8.68332 9.87502C8.7611 9.79168 8.79999 9.68335 8.79999 9.55002V8.40002H9.94999C10.0944 8.40002 10.2055 8.35835 10.2833 8.27502C10.3611 8.19168 10.4 8.08335 10.4 7.95002V7.25002C10.4 7.10557 10.3611 6.99446 10.2833 6.91668C10.2055 6.83891 10.0944 6.80002 9.94999 6.80002H8.79999V5.65002C8.79999 5.50557 8.7611 5.39446 8.68332 5.31668C8.60554 5.23891 8.49443 5.20002 8.34999 5.20002H7.64999C7.51665 5.20002 7.40832 5.23891 7.32499 5.31668C7.24165 5.39446 7.19999 5.50557 7.19999 5.65002V6.80002H6.04999C5.91665 6.80002 5.80832 6.83891 5.72499 6.91668C5.64165 6.99446 5.59999 7.10557 5.59999 7.25002V7.95002C5.59999 8.08335 5.64165 8.19168 5.72499 8.27502C5.80832 8.35835 5.91665 8.40002 6.04999 8.40002H7.19999ZM7.99999 14.3333C7.93332 14.3333 7.86665 14.3306 7.79999 14.325C7.73332 14.3195 7.67221 14.3056 7.61665 14.2833C6.1611 13.8056 4.99443 12.9222 4.11665 11.6333C3.23888 10.3445 2.79999 8.93891 2.79999 7.41668V4.41668C2.79999 4.16113 2.86943 3.93335 3.00832 3.73335C3.14721 3.53335 3.33332 3.38891 3.56665 3.30002L7.56665 1.76668C7.7111 1.71113 7.85554 1.68335 7.99999 1.68335C8.14443 1.68335 8.28888 1.71113 8.43332 1.76668L12.4333 3.30002C12.6667 3.38891 12.8528 3.53335 12.9917 3.73335C13.1305 3.93335 13.2 4.16113 13.2 4.41668V7.41668C13.2 8.93891 12.7611 10.3445 11.8833 11.6333C11.0055 12.9222 9.83888 13.8056 8.38332 14.2833C8.32777 14.3056 8.26665 14.3195 8.19999 14.325C8.13332 14.3306 8.06665 14.3333 7.99999 14.3333ZM7.99999 13.15C9.15554 12.7945 10.1111 12.0778 10.8667 11C11.6222 9.92224 12 8.72779 12 7.41668V4.41668L7.99999 2.88335L3.99999 4.41668V7.41668C3.99999 8.72779 4.37777 9.92224 5.13332 11C5.88888 12.0778 6.84443 12.7945 7.99999 13.15Z" fill="black" fill-opacity="0.2"/>
<path d="M7.19999 8.40002V9.55002C7.19999 9.68335 7.24165 9.79168 7.32499 9.87502C7.40832 9.95835 7.51665 10 7.64999 10H8.34999C8.49443 10 8.60554 9.95835 8.68332 9.87502C8.7611 9.79168 8.79999 9.68335 8.79999 9.55002V8.40002H9.94999C10.0944 8.40002 10.2055 8.35835 10.2833 8.27502C10.3611 8.19168 10.4 8.08335 10.4 7.95002V7.25002C10.4 7.10557 10.3611 6.99446 10.2833 6.91668C10.2055 6.83891 10.0944 6.80002 9.94999 6.80002H8.79999V5.65002C8.79999 5.50557 8.7611 5.39446 8.68332 5.31668C8.60554 5.23891 8.49443 5.20002 8.34999 5.20002H7.64999C7.51665 5.20002 7.40832 5.23891 7.32499 5.31668C7.24165 5.39446 7.19999 5.50557 7.19999 5.65002V6.80002H6.04999C5.91665 6.80002 5.80832 6.83891 5.72499 6.91668C5.64165 6.99446 5.59999 7.10557 5.59999 7.25002V7.95002C5.59999 8.08335 5.64165 8.19168 5.72499 8.27502C5.80832 8.35835 5.91665 8.40002 6.04999 8.40002H7.19999ZM7.99999 14.3333C7.93332 14.3333 7.86665 14.3306 7.79999 14.325C7.73332 14.3195 7.67221 14.3056 7.61665 14.2833C6.1611 13.8056 4.99443 12.9222 4.11665 11.6333C3.23888 10.3445 2.79999 8.93891 2.79999 7.41668V4.41668C2.79999 4.16113 2.86943 3.93335 3.00832 3.73335C3.14721 3.53335 3.33332 3.38891 3.56665 3.30002L7.56665 1.76668C7.7111 1.71113 7.85554 1.68335 7.99999 1.68335C8.14443 1.68335 8.28888 1.71113 8.43332 1.76668L12.4333 3.30002C12.6667 3.38891 12.8528 3.53335 12.9917 3.73335C13.1305 3.93335 13.2 4.16113 13.2 4.41668V7.41668C13.2 8.93891 12.7611 10.3445 11.8833 11.6333C11.0055 12.9222 9.83888 13.8056 8.38332 14.2833C8.32777 14.3056 8.26665 14.3195 8.19999 14.325C8.13332 14.3306 8.06665 14.3333 7.99999 14.3333ZM7.99999 13.15C9.15554 12.7945 10.1111 12.0778 10.8667 11C11.6222 9.92224 12 8.72779 12 7.41668V4.41668L7.99999 2.88335L3.99999 4.41668V7.41668C3.99999 8.72779 4.37777 9.92224 5.13332 11C5.88888 12.0778 6.84443 12.7945 7.99999 13.15Z" fill="black" fill-opacity="0.2"/>
<path d="M7.19999 8.40002V9.55002C7.19999 9.68335 7.24165 9.79168 7.32499 9.87502C7.40832 9.95835 7.51665 10 7.64999 10H8.34999C8.49443 10 8.60554 9.95835 8.68332 9.87502C8.7611 9.79168 8.79999 9.68335 8.79999 9.55002V8.40002H9.94999C10.0944 8.40002 10.2055 8.35835 10.2833 8.27502C10.3611 8.19168 10.4 8.08335 10.4 7.95002V7.25002C10.4 7.10557 10.3611 6.99446 10.2833 6.91668C10.2055 6.83891 10.0944 6.80002 9.94999 6.80002H8.79999V5.65002C8.79999 5.50557 8.7611 5.39446 8.68332 5.31668C8.60554 5.23891 8.49443 5.20002 8.34999 5.20002H7.64999C7.51665 5.20002 7.40832 5.23891 7.32499 5.31668C7.24165 5.39446 7.19999 5.50557 7.19999 5.65002V6.80002H6.04999C5.91665 6.80002 5.80832 6.83891 5.72499 6.91668C5.64165 6.99446 5.59999 7.10557 5.59999 7.25002V7.95002C5.59999 8.08335 5.64165 8.19168 5.72499 8.27502C5.80832 8.35835 5.91665 8.40002 6.04999 8.40002H7.19999ZM7.99999 14.3333C7.93332 14.3333 7.86665 14.3306 7.79999 14.325C7.73332 14.3195 7.67221 14.3056 7.61665 14.2833C6.1611 13.8056 4.99443 12.9222 4.11665 11.6333C3.23888 10.3445 2.79999 8.93891 2.79999 7.41668V4.41668C2.79999 4.16113 2.86943 3.93335 3.00832 3.73335C3.14721 3.53335 3.33332 3.38891 3.56665 3.30002L7.56665 1.76668C7.7111 1.71113 7.85554 1.68335 7.99999 1.68335C8.14443 1.68335 8.28888 1.71113 8.43332 1.76668L12.4333 3.30002C12.6667 3.38891 12.8528 3.53335 12.9917 3.73335C13.1305 3.93335 13.2 4.16113 13.2 4.41668V7.41668C13.2 8.93891 12.7611 10.3445 11.8833 11.6333C11.0055 12.9222 9.83888 13.8056 8.38332 14.2833C8.32777 14.3056 8.26665 14.3195 8.19999 14.325C8.13332 14.3306 8.06665 14.3333 7.99999 14.3333ZM7.99999 13.15C9.15554 12.7945 10.1111 12.0778 10.8667 11C11.6222 9.92224 12 8.72779 12 7.41668V4.41668L7.99999 2.88335L3.99999 4.41668V7.41668C3.99999 8.72779 4.37777 9.92224 5.13332 11C5.88888 12.0778 6.84443 12.7945 7.99999 13.15Z" fill="black" fill-opacity="0.2"/>
<path d="M7.19999 8.40002V9.55002C7.19999 9.68335 7.24165 9.79168 7.32499 9.87502C7.40832 9.95835 7.51665 10 7.64999 10H8.34999C8.49443 10 8.60554 9.95835 8.68332 9.87502C8.7611 9.79168 8.79999 9.68335 8.79999 9.55002V8.40002H9.94999C10.0944 8.40002 10.2055 8.35835 10.2833 8.27502C10.3611 8.19168 10.4 8.08335 10.4 7.95002V7.25002C10.4 7.10557 10.3611 6.99446 10.2833 6.91668C10.2055 6.83891 10.0944 6.80002 9.94999 6.80002H8.79999V5.65002C8.79999 5.50557 8.7611 5.39446 8.68332 5.31668C8.60554 5.23891 8.49443 5.20002 8.34999 5.20002H7.64999C7.51665 5.20002 7.40832 5.23891 7.32499 5.31668C7.24165 5.39446 7.19999 5.50557 7.19999 5.65002V6.80002H6.04999C5.91665 6.80002 5.80832 6.83891 5.72499 6.91668C5.64165 6.99446 5.59999 7.10557 5.59999 7.25002V7.95002C5.59999 8.08335 5.64165 8.19168 5.72499 8.27502C5.80832 8.35835 5.91665 8.40002 6.04999 8.40002H7.19999ZM7.99999 14.3333C7.93332 14.3333 7.86665 14.3306 7.79999 14.325C7.73332 14.3195 7.67221 14.3056 7.61665 14.2833C6.1611 13.8056 4.99443 12.9222 4.11665 11.6333C3.23888 10.3445 2.79999 8.93891 2.79999 7.41668V4.41668C2.79999 4.16113 2.86943 3.93335 3.00832 3.73335C3.14721 3.53335 3.33332 3.38891 3.56665 3.30002L7.56665 1.76668C7.7111 1.71113 7.85554 1.68335 7.99999 1.68335C8.14443 1.68335 8.28888 1.71113 8.43332 1.76668L12.4333 3.30002C12.6667 3.38891 12.8528 3.53335 12.9917 3.73335C13.1305 3.93335 13.2 4.16113 13.2 4.41668V7.41668C13.2 8.93891 12.7611 10.3445 11.8833 11.6333C11.0055 12.9222 9.83888 13.8056 8.38332 14.2833C8.32777 14.3056 8.26665 14.3195 8.19999 14.325C8.13332 14.3306 8.06665 14.3333 7.99999 14.3333ZM7.99999 13.15C9.15554 12.7945 10.1111 12.0778 10.8667 11C11.6222 9.92224 12 8.72779 12 7.41668V4.41668L7.99999 2.88335L3.99999 4.41668V7.41668C3.99999 8.72779 4.37777 9.92224 5.13332 11C5.88888 12.0778 6.84443 12.7945 7.99999 13.15Z" fill="black" fill-opacity="0.2"/>
</g>
</svg>
