<svg width="15" height="16" viewBox="0 0 15 16" fill="none" xmlns="http://www.w3.org/2000/svg">
<mask id="mask0_2424_253" style="mask-type:alpha" maskUnits="userSpaceOnUse" x="0" y="0" width="15" height="16">
<rect y="0.5" width="15" height="15" fill="#D9D9D9"/>
</mask>
<g mask="url(#mask0_2424_253)">
<path d="M3.75 14C3.33333 14 2.97917 13.8541 2.6875 13.5625C2.39583 13.2708 2.25 12.9166 2.25 12.5V11.375C2.25 11.0656 2.36016 10.8008 2.58047 10.5804C2.80078 10.3601 3.06563 10.25 3.375 10.25H3.75V3.12497C3.75 2.81559 3.86016 2.55075 4.08047 2.33044C4.30078 2.11013 4.56562 1.99997 4.875 1.99997H11.625C11.9344 1.99997 12.1992 2.11013 12.4195 2.33044C12.6398 2.55075 12.75 2.81559 12.75 3.12497V12.3125C12.75 12.7812 12.5859 13.1797 12.2578 13.5078C11.9297 13.8359 11.5312 14 11.0625 14H3.75ZM11.0592 12.875C11.2177 12.875 11.3516 12.8211 11.4609 12.7133C11.5703 12.6054 11.625 12.4718 11.625 12.3125V3.12497H4.875V10.25H9.375C9.68437 10.25 9.94922 10.3601 10.1695 10.5804C10.3898 10.8008 10.5 11.0656 10.5 11.375V12.3125C10.5 12.4718 10.5536 12.6054 10.6608 12.7133C10.768 12.8211 10.9008 12.875 11.0592 12.875ZM6.1875 6.12497C6.02813 6.12497 5.89453 6.07138 5.78672 5.96419C5.67891 5.857 5.625 5.72419 5.625 5.56575C5.625 5.40731 5.67891 5.27341 5.78672 5.16403C5.89453 5.05466 6.02813 4.99997 6.1875 4.99997H10.3125C10.4719 4.99997 10.6055 5.05356 10.7133 5.16075C10.8211 5.26794 10.875 5.40075 10.875 5.55919C10.875 5.71763 10.8211 5.85153 10.7133 5.96091C10.6055 6.07028 10.4719 6.12497 10.3125 6.12497H6.1875ZM6.1875 7.99997C6.02813 7.99997 5.89453 7.94638 5.78672 7.83919C5.67891 7.732 5.625 7.59919 5.625 7.44075C5.625 7.28231 5.67891 7.14841 5.78672 7.03903C5.89453 6.92966 6.02813 6.87497 6.1875 6.87497H10.3125C10.4719 6.87497 10.6055 6.92856 10.7133 7.03575C10.8211 7.14294 10.875 7.27575 10.875 7.43419C10.875 7.59263 10.8211 7.72653 10.7133 7.83591C10.6055 7.94528 10.4719 7.99997 10.3125 7.99997H6.1875ZM3.75 12.875H9.375V11.375H3.375V12.5C3.375 12.6062 3.41094 12.6953 3.48281 12.7672C3.55469 12.839 3.64375 12.875 3.75 12.875ZM3.75 12.875H3.375H9.375H3.75Z" fill="#333333"/>
<path d="M3.75 14C3.33333 14 2.97917 13.8541 2.6875 13.5625C2.39583 13.2708 2.25 12.9166 2.25 12.5V11.375C2.25 11.0656 2.36016 10.8008 2.58047 10.5804C2.80078 10.3601 3.06563 10.25 3.375 10.25H3.75V3.12497C3.75 2.81559 3.86016 2.55075 4.08047 2.33044C4.30078 2.11013 4.56562 1.99997 4.875 1.99997H11.625C11.9344 1.99997 12.1992 2.11013 12.4195 2.33044C12.6398 2.55075 12.75 2.81559 12.75 3.12497V12.3125C12.75 12.7812 12.5859 13.1797 12.2578 13.5078C11.9297 13.8359 11.5312 14 11.0625 14H3.75ZM11.0592 12.875C11.2177 12.875 11.3516 12.8211 11.4609 12.7133C11.5703 12.6054 11.625 12.4718 11.625 12.3125V3.12497H4.875V10.25H9.375C9.68437 10.25 9.94922 10.3601 10.1695 10.5804C10.3898 10.8008 10.5 11.0656 10.5 11.375V12.3125C10.5 12.4718 10.5536 12.6054 10.6608 12.7133C10.768 12.8211 10.9008 12.875 11.0592 12.875ZM6.1875 6.12497C6.02813 6.12497 5.89453 6.07138 5.78672 5.96419C5.67891 5.857 5.625 5.72419 5.625 5.56575C5.625 5.40731 5.67891 5.27341 5.78672 5.16403C5.89453 5.05466 6.02813 4.99997 6.1875 4.99997H10.3125C10.4719 4.99997 10.6055 5.05356 10.7133 5.16075C10.8211 5.26794 10.875 5.40075 10.875 5.55919C10.875 5.71763 10.8211 5.85153 10.7133 5.96091C10.6055 6.07028 10.4719 6.12497 10.3125 6.12497H6.1875ZM6.1875 7.99997C6.02813 7.99997 5.89453 7.94638 5.78672 7.83919C5.67891 7.732 5.625 7.59919 5.625 7.44075C5.625 7.28231 5.67891 7.14841 5.78672 7.03903C5.89453 6.92966 6.02813 6.87497 6.1875 6.87497H10.3125C10.4719 6.87497 10.6055 6.92856 10.7133 7.03575C10.8211 7.14294 10.875 7.27575 10.875 7.43419C10.875 7.59263 10.8211 7.72653 10.7133 7.83591C10.6055 7.94528 10.4719 7.99997 10.3125 7.99997H6.1875ZM3.75 12.875H9.375V11.375H3.375V12.5C3.375 12.6062 3.41094 12.6953 3.48281 12.7672C3.55469 12.839 3.64375 12.875 3.75 12.875ZM3.75 12.875H3.375H9.375H3.75Z" fill="black" fill-opacity="0.2"/>
<path d="M3.75 14C3.33333 14 2.97917 13.8541 2.6875 13.5625C2.39583 13.2708 2.25 12.9166 2.25 12.5V11.375C2.25 11.0656 2.36016 10.8008 2.58047 10.5804C2.80078 10.3601 3.06563 10.25 3.375 10.25H3.75V3.12497C3.75 2.81559 3.86016 2.55075 4.08047 2.33044C4.30078 2.11013 4.56562 1.99997 4.875 1.99997H11.625C11.9344 1.99997 12.1992 2.11013 12.4195 2.33044C12.6398 2.55075 12.75 2.81559 12.75 3.12497V12.3125C12.75 12.7812 12.5859 13.1797 12.2578 13.5078C11.9297 13.8359 11.5312 14 11.0625 14H3.75ZM11.0592 12.875C11.2177 12.875 11.3516 12.8211 11.4609 12.7133C11.5703 12.6054 11.625 12.4718 11.625 12.3125V3.12497H4.875V10.25H9.375C9.68437 10.25 9.94922 10.3601 10.1695 10.5804C10.3898 10.8008 10.5 11.0656 10.5 11.375V12.3125C10.5 12.4718 10.5536 12.6054 10.6608 12.7133C10.768 12.8211 10.9008 12.875 11.0592 12.875ZM6.1875 6.12497C6.02813 6.12497 5.89453 6.07138 5.78672 5.96419C5.67891 5.857 5.625 5.72419 5.625 5.56575C5.625 5.40731 5.67891 5.27341 5.78672 5.16403C5.89453 5.05466 6.02813 4.99997 6.1875 4.99997H10.3125C10.4719 4.99997 10.6055 5.05356 10.7133 5.16075C10.8211 5.26794 10.875 5.40075 10.875 5.55919C10.875 5.71763 10.8211 5.85153 10.7133 5.96091C10.6055 6.07028 10.4719 6.12497 10.3125 6.12497H6.1875ZM6.1875 7.99997C6.02813 7.99997 5.89453 7.94638 5.78672 7.83919C5.67891 7.732 5.625 7.59919 5.625 7.44075C5.625 7.28231 5.67891 7.14841 5.78672 7.03903C5.89453 6.92966 6.02813 6.87497 6.1875 6.87497H10.3125C10.4719 6.87497 10.6055 6.92856 10.7133 7.03575C10.8211 7.14294 10.875 7.27575 10.875 7.43419C10.875 7.59263 10.8211 7.72653 10.7133 7.83591C10.6055 7.94528 10.4719 7.99997 10.3125 7.99997H6.1875ZM3.75 12.875H9.375V11.375H3.375V12.5C3.375 12.6062 3.41094 12.6953 3.48281 12.7672C3.55469 12.839 3.64375 12.875 3.75 12.875ZM3.75 12.875H3.375H9.375H3.75Z" fill="black" fill-opacity="0.2"/>
<path d="M3.75 14C3.33333 14 2.97917 13.8541 2.6875 13.5625C2.39583 13.2708 2.25 12.9166 2.25 12.5V11.375C2.25 11.0656 2.36016 10.8008 2.58047 10.5804C2.80078 10.3601 3.06563 10.25 3.375 10.25H3.75V3.12497C3.75 2.81559 3.86016 2.55075 4.08047 2.33044C4.30078 2.11013 4.56562 1.99997 4.875 1.99997H11.625C11.9344 1.99997 12.1992 2.11013 12.4195 2.33044C12.6398 2.55075 12.75 2.81559 12.75 3.12497V12.3125C12.75 12.7812 12.5859 13.1797 12.2578 13.5078C11.9297 13.8359 11.5312 14 11.0625 14H3.75ZM11.0592 12.875C11.2177 12.875 11.3516 12.8211 11.4609 12.7133C11.5703 12.6054 11.625 12.4718 11.625 12.3125V3.12497H4.875V10.25H9.375C9.68437 10.25 9.94922 10.3601 10.1695 10.5804C10.3898 10.8008 10.5 11.0656 10.5 11.375V12.3125C10.5 12.4718 10.5536 12.6054 10.6608 12.7133C10.768 12.8211 10.9008 12.875 11.0592 12.875ZM6.1875 6.12497C6.02813 6.12497 5.89453 6.07138 5.78672 5.96419C5.67891 5.857 5.625 5.72419 5.625 5.56575C5.625 5.40731 5.67891 5.27341 5.78672 5.16403C5.89453 5.05466 6.02813 4.99997 6.1875 4.99997H10.3125C10.4719 4.99997 10.6055 5.05356 10.7133 5.16075C10.8211 5.26794 10.875 5.40075 10.875 5.55919C10.875 5.71763 10.8211 5.85153 10.7133 5.96091C10.6055 6.07028 10.4719 6.12497 10.3125 6.12497H6.1875ZM6.1875 7.99997C6.02813 7.99997 5.89453 7.94638 5.78672 7.83919C5.67891 7.732 5.625 7.59919 5.625 7.44075C5.625 7.28231 5.67891 7.14841 5.78672 7.03903C5.89453 6.92966 6.02813 6.87497 6.1875 6.87497H10.3125C10.4719 6.87497 10.6055 6.92856 10.7133 7.03575C10.8211 7.14294 10.875 7.27575 10.875 7.43419C10.875 7.59263 10.8211 7.72653 10.7133 7.83591C10.6055 7.94528 10.4719 7.99997 10.3125 7.99997H6.1875ZM3.75 12.875H9.375V11.375H3.375V12.5C3.375 12.6062 3.41094 12.6953 3.48281 12.7672C3.55469 12.839 3.64375 12.875 3.75 12.875ZM3.75 12.875H3.375H9.375H3.75Z" fill="black" fill-opacity="0.2"/>
<path d="M3.75 14C3.33333 14 2.97917 13.8541 2.6875 13.5625C2.39583 13.2708 2.25 12.9166 2.25 12.5V11.375C2.25 11.0656 2.36016 10.8008 2.58047 10.5804C2.80078 10.3601 3.06563 10.25 3.375 10.25H3.75V3.12497C3.75 2.81559 3.86016 2.55075 4.08047 2.33044C4.30078 2.11013 4.56562 1.99997 4.875 1.99997H11.625C11.9344 1.99997 12.1992 2.11013 12.4195 2.33044C12.6398 2.55075 12.75 2.81559 12.75 3.12497V12.3125C12.75 12.7812 12.5859 13.1797 12.2578 13.5078C11.9297 13.8359 11.5312 14 11.0625 14H3.75ZM11.0592 12.875C11.2177 12.875 11.3516 12.8211 11.4609 12.7133C11.5703 12.6054 11.625 12.4718 11.625 12.3125V3.12497H4.875V10.25H9.375C9.68437 10.25 9.94922 10.3601 10.1695 10.5804C10.3898 10.8008 10.5 11.0656 10.5 11.375V12.3125C10.5 12.4718 10.5536 12.6054 10.6608 12.7133C10.768 12.8211 10.9008 12.875 11.0592 12.875ZM6.1875 6.12497C6.02813 6.12497 5.89453 6.07138 5.78672 5.96419C5.67891 5.857 5.625 5.72419 5.625 5.56575C5.625 5.40731 5.67891 5.27341 5.78672 5.16403C5.89453 5.05466 6.02813 4.99997 6.1875 4.99997H10.3125C10.4719 4.99997 10.6055 5.05356 10.7133 5.16075C10.8211 5.26794 10.875 5.40075 10.875 5.55919C10.875 5.71763 10.8211 5.85153 10.7133 5.96091C10.6055 6.07028 10.4719 6.12497 10.3125 6.12497H6.1875ZM6.1875 7.99997C6.02813 7.99997 5.89453 7.94638 5.78672 7.83919C5.67891 7.732 5.625 7.59919 5.625 7.44075C5.625 7.28231 5.67891 7.14841 5.78672 7.03903C5.89453 6.92966 6.02813 6.87497 6.1875 6.87497H10.3125C10.4719 6.87497 10.6055 6.92856 10.7133 7.03575C10.8211 7.14294 10.875 7.27575 10.875 7.43419C10.875 7.59263 10.8211 7.72653 10.7133 7.83591C10.6055 7.94528 10.4719 7.99997 10.3125 7.99997H6.1875ZM3.75 12.875H9.375V11.375H3.375V12.5C3.375 12.6062 3.41094 12.6953 3.48281 12.7672C3.55469 12.839 3.64375 12.875 3.75 12.875ZM3.75 12.875H3.375H9.375H3.75Z" fill="black" fill-opacity="0.2"/>
<path d="M3.75 14C3.33333 14 2.97917 13.8541 2.6875 13.5625C2.39583 13.2708 2.25 12.9166 2.25 12.5V11.375C2.25 11.0656 2.36016 10.8008 2.58047 10.5804C2.80078 10.3601 3.06563 10.25 3.375 10.25H3.75V3.12497C3.75 2.81559 3.86016 2.55075 4.08047 2.33044C4.30078 2.11013 4.56562 1.99997 4.875 1.99997H11.625C11.9344 1.99997 12.1992 2.11013 12.4195 2.33044C12.6398 2.55075 12.75 2.81559 12.75 3.12497V12.3125C12.75 12.7812 12.5859 13.1797 12.2578 13.5078C11.9297 13.8359 11.5312 14 11.0625 14H3.75ZM11.0592 12.875C11.2177 12.875 11.3516 12.8211 11.4609 12.7133C11.5703 12.6054 11.625 12.4718 11.625 12.3125V3.12497H4.875V10.25H9.375C9.68437 10.25 9.94922 10.3601 10.1695 10.5804C10.3898 10.8008 10.5 11.0656 10.5 11.375V12.3125C10.5 12.4718 10.5536 12.6054 10.6608 12.7133C10.768 12.8211 10.9008 12.875 11.0592 12.875ZM6.1875 6.12497C6.02813 6.12497 5.89453 6.07138 5.78672 5.96419C5.67891 5.857 5.625 5.72419 5.625 5.56575C5.625 5.40731 5.67891 5.27341 5.78672 5.16403C5.89453 5.05466 6.02813 4.99997 6.1875 4.99997H10.3125C10.4719 4.99997 10.6055 5.05356 10.7133 5.16075C10.8211 5.26794 10.875 5.40075 10.875 5.55919C10.875 5.71763 10.8211 5.85153 10.7133 5.96091C10.6055 6.07028 10.4719 6.12497 10.3125 6.12497H6.1875ZM6.1875 7.99997C6.02813 7.99997 5.89453 7.94638 5.78672 7.83919C5.67891 7.732 5.625 7.59919 5.625 7.44075C5.625 7.28231 5.67891 7.14841 5.78672 7.03903C5.89453 6.92966 6.02813 6.87497 6.1875 6.87497H10.3125C10.4719 6.87497 10.6055 6.92856 10.7133 7.03575C10.8211 7.14294 10.875 7.27575 10.875 7.43419C10.875 7.59263 10.8211 7.72653 10.7133 7.83591C10.6055 7.94528 10.4719 7.99997 10.3125 7.99997H6.1875ZM3.75 12.875H9.375V11.375H3.375V12.5C3.375 12.6062 3.41094 12.6953 3.48281 12.7672C3.55469 12.839 3.64375 12.875 3.75 12.875ZM3.75 12.875H3.375H9.375H3.75Z" fill="black" fill-opacity="0.2"/>
<path d="M3.75 14C3.33333 14 2.97917 13.8541 2.6875 13.5625C2.39583 13.2708 2.25 12.9166 2.25 12.5V11.375C2.25 11.0656 2.36016 10.8008 2.58047 10.5804C2.80078 10.3601 3.06563 10.25 3.375 10.25H3.75V3.12497C3.75 2.81559 3.86016 2.55075 4.08047 2.33044C4.30078 2.11013 4.56562 1.99997 4.875 1.99997H11.625C11.9344 1.99997 12.1992 2.11013 12.4195 2.33044C12.6398 2.55075 12.75 2.81559 12.75 3.12497V12.3125C12.75 12.7812 12.5859 13.1797 12.2578 13.5078C11.9297 13.8359 11.5312 14 11.0625 14H3.75ZM11.0592 12.875C11.2177 12.875 11.3516 12.8211 11.4609 12.7133C11.5703 12.6054 11.625 12.4718 11.625 12.3125V3.12497H4.875V10.25H9.375C9.68437 10.25 9.94922 10.3601 10.1695 10.5804C10.3898 10.8008 10.5 11.0656 10.5 11.375V12.3125C10.5 12.4718 10.5536 12.6054 10.6608 12.7133C10.768 12.8211 10.9008 12.875 11.0592 12.875ZM6.1875 6.12497C6.02813 6.12497 5.89453 6.07138 5.78672 5.96419C5.67891 5.857 5.625 5.72419 5.625 5.56575C5.625 5.40731 5.67891 5.27341 5.78672 5.16403C5.89453 5.05466 6.02813 4.99997 6.1875 4.99997H10.3125C10.4719 4.99997 10.6055 5.05356 10.7133 5.16075C10.8211 5.26794 10.875 5.40075 10.875 5.55919C10.875 5.71763 10.8211 5.85153 10.7133 5.96091C10.6055 6.07028 10.4719 6.12497 10.3125 6.12497H6.1875ZM6.1875 7.99997C6.02813 7.99997 5.89453 7.94638 5.78672 7.83919C5.67891 7.732 5.625 7.59919 5.625 7.44075C5.625 7.28231 5.67891 7.14841 5.78672 7.03903C5.89453 6.92966 6.02813 6.87497 6.1875 6.87497H10.3125C10.4719 6.87497 10.6055 6.92856 10.7133 7.03575C10.8211 7.14294 10.875 7.27575 10.875 7.43419C10.875 7.59263 10.8211 7.72653 10.7133 7.83591C10.6055 7.94528 10.4719 7.99997 10.3125 7.99997H6.1875ZM3.75 12.875H9.375V11.375H3.375V12.5C3.375 12.6062 3.41094 12.6953 3.48281 12.7672C3.55469 12.839 3.64375 12.875 3.75 12.875ZM3.75 12.875H3.375H9.375H3.75Z" fill="black" fill-opacity="0.2"/>
<path d="M3.75 14C3.33333 14 2.97917 13.8541 2.6875 13.5625C2.39583 13.2708 2.25 12.9166 2.25 12.5V11.375C2.25 11.0656 2.36016 10.8008 2.58047 10.5804C2.80078 10.3601 3.06563 10.25 3.375 10.25H3.75V3.12497C3.75 2.81559 3.86016 2.55075 4.08047 2.33044C4.30078 2.11013 4.56562 1.99997 4.875 1.99997H11.625C11.9344 1.99997 12.1992 2.11013 12.4195 2.33044C12.6398 2.55075 12.75 2.81559 12.75 3.12497V12.3125C12.75 12.7812 12.5859 13.1797 12.2578 13.5078C11.9297 13.8359 11.5312 14 11.0625 14H3.75ZM11.0592 12.875C11.2177 12.875 11.3516 12.8211 11.4609 12.7133C11.5703 12.6054 11.625 12.4718 11.625 12.3125V3.12497H4.875V10.25H9.375C9.68437 10.25 9.94922 10.3601 10.1695 10.5804C10.3898 10.8008 10.5 11.0656 10.5 11.375V12.3125C10.5 12.4718 10.5536 12.6054 10.6608 12.7133C10.768 12.8211 10.9008 12.875 11.0592 12.875ZM6.1875 6.12497C6.02813 6.12497 5.89453 6.07138 5.78672 5.96419C5.67891 5.857 5.625 5.72419 5.625 5.56575C5.625 5.40731 5.67891 5.27341 5.78672 5.16403C5.89453 5.05466 6.02813 4.99997 6.1875 4.99997H10.3125C10.4719 4.99997 10.6055 5.05356 10.7133 5.16075C10.8211 5.26794 10.875 5.40075 10.875 5.55919C10.875 5.71763 10.8211 5.85153 10.7133 5.96091C10.6055 6.07028 10.4719 6.12497 10.3125 6.12497H6.1875ZM6.1875 7.99997C6.02813 7.99997 5.89453 7.94638 5.78672 7.83919C5.67891 7.732 5.625 7.59919 5.625 7.44075C5.625 7.28231 5.67891 7.14841 5.78672 7.03903C5.89453 6.92966 6.02813 6.87497 6.1875 6.87497H10.3125C10.4719 6.87497 10.6055 6.92856 10.7133 7.03575C10.8211 7.14294 10.875 7.27575 10.875 7.43419C10.875 7.59263 10.8211 7.72653 10.7133 7.83591C10.6055 7.94528 10.4719 7.99997 10.3125 7.99997H6.1875ZM3.75 12.875H9.375V11.375H3.375V12.5C3.375 12.6062 3.41094 12.6953 3.48281 12.7672C3.55469 12.839 3.64375 12.875 3.75 12.875ZM3.75 12.875H3.375H9.375H3.75Z" fill="black" fill-opacity="0.2"/>
</g>
</svg>
