<svg width="15" height="16" viewBox="0 0 15 16" fill="none" xmlns="http://www.w3.org/2000/svg">
<mask id="mask0_2424_238" style="mask-type:alpha" maskUnits="userSpaceOnUse" x="0" y="0" width="15" height="16">
<rect y="0.5" width="15" height="15" fill="#D9D9D9"/>
</mask>
<g mask="url(#mask0_2424_238)">
<path d="M1.5 11.3749V9.12494C1.5 8.70827 1.64583 8.35411 1.9375 8.06244C2.22917 7.77077 2.58333 7.62494 3 7.62494H3.75V4.62494C3.75 4.31556 3.86016 4.05072 4.08047 3.83041C4.30078 3.6101 4.56562 3.49994 4.875 3.49994H10.125C10.4344 3.49994 10.6992 3.6101 10.9195 3.83041C11.1398 4.05072 11.25 4.31556 11.25 4.62494V7.62494H12C12.4167 7.62494 12.7708 7.77077 13.0625 8.06244C13.3542 8.35411 13.5 8.70827 13.5 9.12494V11.3749C13.5 11.6843 13.3898 11.9492 13.1695 12.1695C12.9492 12.3898 12.6844 12.4999 12.375 12.4999H2.625C2.31563 12.4999 2.05078 12.3898 1.83047 12.1695C1.61016 11.9492 1.5 11.6843 1.5 11.3749ZM4.875 7.62494H10.125V4.62494H4.875V7.62494ZM2.625 11.3749H12.375V9.31244C12.375 9.15306 12.3151 9.01947 12.1953 8.91166C12.0755 8.80385 11.9323 8.74994 11.7656 8.74994H3.23438C3.06771 8.74994 2.92448 8.80385 2.80469 8.91166C2.6849 9.01947 2.625 9.15306 2.625 9.31244V11.3749ZM11.0592 10.6249C11.2177 10.6249 11.3516 10.5713 11.4609 10.4642C11.5703 10.357 11.625 10.2242 11.625 10.0657C11.625 9.90728 11.5714 9.77338 11.4642 9.664C11.357 9.55463 11.2242 9.49994 11.0658 9.49994C10.9073 9.49994 10.7734 9.55353 10.6641 9.66072C10.5547 9.76791 10.5 9.90072 10.5 10.0592C10.5 10.2176 10.5536 10.3515 10.6608 10.4609C10.768 10.5703 10.9008 10.6249 11.0592 10.6249Z" fill="#333333"/>
<path d="M1.5 11.3749V9.12494C1.5 8.70827 1.64583 8.35411 1.9375 8.06244C2.22917 7.77077 2.58333 7.62494 3 7.62494H3.75V4.62494C3.75 4.31556 3.86016 4.05072 4.08047 3.83041C4.30078 3.6101 4.56562 3.49994 4.875 3.49994H10.125C10.4344 3.49994 10.6992 3.6101 10.9195 3.83041C11.1398 4.05072 11.25 4.31556 11.25 4.62494V7.62494H12C12.4167 7.62494 12.7708 7.77077 13.0625 8.06244C13.3542 8.35411 13.5 8.70827 13.5 9.12494V11.3749C13.5 11.6843 13.3898 11.9492 13.1695 12.1695C12.9492 12.3898 12.6844 12.4999 12.375 12.4999H2.625C2.31563 12.4999 2.05078 12.3898 1.83047 12.1695C1.61016 11.9492 1.5 11.6843 1.5 11.3749ZM4.875 7.62494H10.125V4.62494H4.875V7.62494ZM2.625 11.3749H12.375V9.31244C12.375 9.15306 12.3151 9.01947 12.1953 8.91166C12.0755 8.80385 11.9323 8.74994 11.7656 8.74994H3.23438C3.06771 8.74994 2.92448 8.80385 2.80469 8.91166C2.6849 9.01947 2.625 9.15306 2.625 9.31244V11.3749ZM11.0592 10.6249C11.2177 10.6249 11.3516 10.5713 11.4609 10.4642C11.5703 10.357 11.625 10.2242 11.625 10.0657C11.625 9.90728 11.5714 9.77338 11.4642 9.664C11.357 9.55463 11.2242 9.49994 11.0658 9.49994C10.9073 9.49994 10.7734 9.55353 10.6641 9.66072C10.5547 9.76791 10.5 9.90072 10.5 10.0592C10.5 10.2176 10.5536 10.3515 10.6608 10.4609C10.768 10.5703 10.9008 10.6249 11.0592 10.6249Z" fill="black" fill-opacity="0.2"/>
<path d="M1.5 11.3749V9.12494C1.5 8.70827 1.64583 8.35411 1.9375 8.06244C2.22917 7.77077 2.58333 7.62494 3 7.62494H3.75V4.62494C3.75 4.31556 3.86016 4.05072 4.08047 3.83041C4.30078 3.6101 4.56562 3.49994 4.875 3.49994H10.125C10.4344 3.49994 10.6992 3.6101 10.9195 3.83041C11.1398 4.05072 11.25 4.31556 11.25 4.62494V7.62494H12C12.4167 7.62494 12.7708 7.77077 13.0625 8.06244C13.3542 8.35411 13.5 8.70827 13.5 9.12494V11.3749C13.5 11.6843 13.3898 11.9492 13.1695 12.1695C12.9492 12.3898 12.6844 12.4999 12.375 12.4999H2.625C2.31563 12.4999 2.05078 12.3898 1.83047 12.1695C1.61016 11.9492 1.5 11.6843 1.5 11.3749ZM4.875 7.62494H10.125V4.62494H4.875V7.62494ZM2.625 11.3749H12.375V9.31244C12.375 9.15306 12.3151 9.01947 12.1953 8.91166C12.0755 8.80385 11.9323 8.74994 11.7656 8.74994H3.23438C3.06771 8.74994 2.92448 8.80385 2.80469 8.91166C2.6849 9.01947 2.625 9.15306 2.625 9.31244V11.3749ZM11.0592 10.6249C11.2177 10.6249 11.3516 10.5713 11.4609 10.4642C11.5703 10.357 11.625 10.2242 11.625 10.0657C11.625 9.90728 11.5714 9.77338 11.4642 9.664C11.357 9.55463 11.2242 9.49994 11.0658 9.49994C10.9073 9.49994 10.7734 9.55353 10.6641 9.66072C10.5547 9.76791 10.5 9.90072 10.5 10.0592C10.5 10.2176 10.5536 10.3515 10.6608 10.4609C10.768 10.5703 10.9008 10.6249 11.0592 10.6249Z" fill="black" fill-opacity="0.2"/>
<path d="M1.5 11.3749V9.12494C1.5 8.70827 1.64583 8.35411 1.9375 8.06244C2.22917 7.77077 2.58333 7.62494 3 7.62494H3.75V4.62494C3.75 4.31556 3.86016 4.05072 4.08047 3.83041C4.30078 3.6101 4.56562 3.49994 4.875 3.49994H10.125C10.4344 3.49994 10.6992 3.6101 10.9195 3.83041C11.1398 4.05072 11.25 4.31556 11.25 4.62494V7.62494H12C12.4167 7.62494 12.7708 7.77077 13.0625 8.06244C13.3542 8.35411 13.5 8.70827 13.5 9.12494V11.3749C13.5 11.6843 13.3898 11.9492 13.1695 12.1695C12.9492 12.3898 12.6844 12.4999 12.375 12.4999H2.625C2.31563 12.4999 2.05078 12.3898 1.83047 12.1695C1.61016 11.9492 1.5 11.6843 1.5 11.3749ZM4.875 7.62494H10.125V4.62494H4.875V7.62494ZM2.625 11.3749H12.375V9.31244C12.375 9.15306 12.3151 9.01947 12.1953 8.91166C12.0755 8.80385 11.9323 8.74994 11.7656 8.74994H3.23438C3.06771 8.74994 2.92448 8.80385 2.80469 8.91166C2.6849 9.01947 2.625 9.15306 2.625 9.31244V11.3749ZM11.0592 10.6249C11.2177 10.6249 11.3516 10.5713 11.4609 10.4642C11.5703 10.357 11.625 10.2242 11.625 10.0657C11.625 9.90728 11.5714 9.77338 11.4642 9.664C11.357 9.55463 11.2242 9.49994 11.0658 9.49994C10.9073 9.49994 10.7734 9.55353 10.6641 9.66072C10.5547 9.76791 10.5 9.90072 10.5 10.0592C10.5 10.2176 10.5536 10.3515 10.6608 10.4609C10.768 10.5703 10.9008 10.6249 11.0592 10.6249Z" fill="black" fill-opacity="0.2"/>
<path d="M1.5 11.3749V9.12494C1.5 8.70827 1.64583 8.35411 1.9375 8.06244C2.22917 7.77077 2.58333 7.62494 3 7.62494H3.75V4.62494C3.75 4.31556 3.86016 4.05072 4.08047 3.83041C4.30078 3.6101 4.56562 3.49994 4.875 3.49994H10.125C10.4344 3.49994 10.6992 3.6101 10.9195 3.83041C11.1398 4.05072 11.25 4.31556 11.25 4.62494V7.62494H12C12.4167 7.62494 12.7708 7.77077 13.0625 8.06244C13.3542 8.35411 13.5 8.70827 13.5 9.12494V11.3749C13.5 11.6843 13.3898 11.9492 13.1695 12.1695C12.9492 12.3898 12.6844 12.4999 12.375 12.4999H2.625C2.31563 12.4999 2.05078 12.3898 1.83047 12.1695C1.61016 11.9492 1.5 11.6843 1.5 11.3749ZM4.875 7.62494H10.125V4.62494H4.875V7.62494ZM2.625 11.3749H12.375V9.31244C12.375 9.15306 12.3151 9.01947 12.1953 8.91166C12.0755 8.80385 11.9323 8.74994 11.7656 8.74994H3.23438C3.06771 8.74994 2.92448 8.80385 2.80469 8.91166C2.6849 9.01947 2.625 9.15306 2.625 9.31244V11.3749ZM11.0592 10.6249C11.2177 10.6249 11.3516 10.5713 11.4609 10.4642C11.5703 10.357 11.625 10.2242 11.625 10.0657C11.625 9.90728 11.5714 9.77338 11.4642 9.664C11.357 9.55463 11.2242 9.49994 11.0658 9.49994C10.9073 9.49994 10.7734 9.55353 10.6641 9.66072C10.5547 9.76791 10.5 9.90072 10.5 10.0592C10.5 10.2176 10.5536 10.3515 10.6608 10.4609C10.768 10.5703 10.9008 10.6249 11.0592 10.6249Z" fill="black" fill-opacity="0.2"/>
<path d="M1.5 11.3749V9.12494C1.5 8.70827 1.64583 8.35411 1.9375 8.06244C2.22917 7.77077 2.58333 7.62494 3 7.62494H3.75V4.62494C3.75 4.31556 3.86016 4.05072 4.08047 3.83041C4.30078 3.6101 4.56562 3.49994 4.875 3.49994H10.125C10.4344 3.49994 10.6992 3.6101 10.9195 3.83041C11.1398 4.05072 11.25 4.31556 11.25 4.62494V7.62494H12C12.4167 7.62494 12.7708 7.77077 13.0625 8.06244C13.3542 8.35411 13.5 8.70827 13.5 9.12494V11.3749C13.5 11.6843 13.3898 11.9492 13.1695 12.1695C12.9492 12.3898 12.6844 12.4999 12.375 12.4999H2.625C2.31563 12.4999 2.05078 12.3898 1.83047 12.1695C1.61016 11.9492 1.5 11.6843 1.5 11.3749ZM4.875 7.62494H10.125V4.62494H4.875V7.62494ZM2.625 11.3749H12.375V9.31244C12.375 9.15306 12.3151 9.01947 12.1953 8.91166C12.0755 8.80385 11.9323 8.74994 11.7656 8.74994H3.23438C3.06771 8.74994 2.92448 8.80385 2.80469 8.91166C2.6849 9.01947 2.625 9.15306 2.625 9.31244V11.3749ZM11.0592 10.6249C11.2177 10.6249 11.3516 10.5713 11.4609 10.4642C11.5703 10.357 11.625 10.2242 11.625 10.0657C11.625 9.90728 11.5714 9.77338 11.4642 9.664C11.357 9.55463 11.2242 9.49994 11.0658 9.49994C10.9073 9.49994 10.7734 9.55353 10.6641 9.66072C10.5547 9.76791 10.5 9.90072 10.5 10.0592C10.5 10.2176 10.5536 10.3515 10.6608 10.4609C10.768 10.5703 10.9008 10.6249 11.0592 10.6249Z" fill="black" fill-opacity="0.2"/>
<path d="M1.5 11.3749V9.12494C1.5 8.70827 1.64583 8.35411 1.9375 8.06244C2.22917 7.77077 2.58333 7.62494 3 7.62494H3.75V4.62494C3.75 4.31556 3.86016 4.05072 4.08047 3.83041C4.30078 3.6101 4.56562 3.49994 4.875 3.49994H10.125C10.4344 3.49994 10.6992 3.6101 10.9195 3.83041C11.1398 4.05072 11.25 4.31556 11.25 4.62494V7.62494H12C12.4167 7.62494 12.7708 7.77077 13.0625 8.06244C13.3542 8.35411 13.5 8.70827 13.5 9.12494V11.3749C13.5 11.6843 13.3898 11.9492 13.1695 12.1695C12.9492 12.3898 12.6844 12.4999 12.375 12.4999H2.625C2.31563 12.4999 2.05078 12.3898 1.83047 12.1695C1.61016 11.9492 1.5 11.6843 1.5 11.3749ZM4.875 7.62494H10.125V4.62494H4.875V7.62494ZM2.625 11.3749H12.375V9.31244C12.375 9.15306 12.3151 9.01947 12.1953 8.91166C12.0755 8.80385 11.9323 8.74994 11.7656 8.74994H3.23438C3.06771 8.74994 2.92448 8.80385 2.80469 8.91166C2.6849 9.01947 2.625 9.15306 2.625 9.31244V11.3749ZM11.0592 10.6249C11.2177 10.6249 11.3516 10.5713 11.4609 10.4642C11.5703 10.357 11.625 10.2242 11.625 10.0657C11.625 9.90728 11.5714 9.77338 11.4642 9.664C11.357 9.55463 11.2242 9.49994 11.0658 9.49994C10.9073 9.49994 10.7734 9.55353 10.6641 9.66072C10.5547 9.76791 10.5 9.90072 10.5 10.0592C10.5 10.2176 10.5536 10.3515 10.6608 10.4609C10.768 10.5703 10.9008 10.6249 11.0592 10.6249Z" fill="black" fill-opacity="0.2"/>
<path d="M1.5 11.3749V9.12494C1.5 8.70827 1.64583 8.35411 1.9375 8.06244C2.22917 7.77077 2.58333 7.62494 3 7.62494H3.75V4.62494C3.75 4.31556 3.86016 4.05072 4.08047 3.83041C4.30078 3.6101 4.56562 3.49994 4.875 3.49994H10.125C10.4344 3.49994 10.6992 3.6101 10.9195 3.83041C11.1398 4.05072 11.25 4.31556 11.25 4.62494V7.62494H12C12.4167 7.62494 12.7708 7.77077 13.0625 8.06244C13.3542 8.35411 13.5 8.70827 13.5 9.12494V11.3749C13.5 11.6843 13.3898 11.9492 13.1695 12.1695C12.9492 12.3898 12.6844 12.4999 12.375 12.4999H2.625C2.31563 12.4999 2.05078 12.3898 1.83047 12.1695C1.61016 11.9492 1.5 11.6843 1.5 11.3749ZM4.875 7.62494H10.125V4.62494H4.875V7.62494ZM2.625 11.3749H12.375V9.31244C12.375 9.15306 12.3151 9.01947 12.1953 8.91166C12.0755 8.80385 11.9323 8.74994 11.7656 8.74994H3.23438C3.06771 8.74994 2.92448 8.80385 2.80469 8.91166C2.6849 9.01947 2.625 9.15306 2.625 9.31244V11.3749ZM11.0592 10.6249C11.2177 10.6249 11.3516 10.5713 11.4609 10.4642C11.5703 10.357 11.625 10.2242 11.625 10.0657C11.625 9.90728 11.5714 9.77338 11.4642 9.664C11.357 9.55463 11.2242 9.49994 11.0658 9.49994C10.9073 9.49994 10.7734 9.55353 10.6641 9.66072C10.5547 9.76791 10.5 9.90072 10.5 10.0592C10.5 10.2176 10.5536 10.3515 10.6608 10.4609C10.768 10.5703 10.9008 10.6249 11.0592 10.6249Z" fill="black" fill-opacity="0.2"/>
</g>
</svg>
