<svg width="99" height="11" viewBox="0 0 99 11" fill="none" xmlns="http://www.w3.org/2000/svg">
<path d="M3.53906 3.47266C3.53906 4.04688 3.62695 4.61328 3.80273 5.17188C3.98242 5.72656 4.23828 6.22656 4.57031 6.67188C4.90625 7.11719 5.30078 7.46094 5.75391 7.70312L5.20312 8.42969C4.71094 8.14844 4.28516 7.75781 3.92578 7.25781C3.56641 6.75391 3.29102 6.17969 3.09961 5.53516C2.9043 6.23047 2.61719 6.85352 2.23828 7.4043C1.85938 7.95508 1.41406 8.38281 0.902344 8.6875L0.304688 8.00781C0.777344 7.73828 1.19141 7.36719 1.54688 6.89453C1.90234 6.41797 2.17578 5.88867 2.36719 5.30664C2.55859 4.7207 2.65234 4.12891 2.64844 3.53125V1.51562H3.53906V3.47266ZM6.14062 0.753906H7.03125V4.72656H8.46094V0.53125H9.35156V10.9492H8.46094V5.48828H7.03125V10.4219H6.14062V0.753906ZM18.5156 7.11719C19.2578 7.11719 19.9023 7.19336 20.4492 7.3457C21 7.49414 21.4238 7.71289 21.7207 8.00195C22.0215 8.28711 22.1719 8.62891 22.1719 9.02734C22.1719 9.42188 22.0215 9.76172 21.7207 10.0469C21.4238 10.332 21 10.5488 20.4492 10.6973C19.9023 10.8496 19.2578 10.9258 18.5156 10.9258C17.7734 10.9258 17.127 10.8496 16.5762 10.6973C16.0293 10.5488 15.6074 10.332 15.3105 10.0469C15.0176 9.76172 14.8711 9.42188 14.8711 9.02734C14.8711 8.62891 15.0176 8.28711 15.3105 8.00195C15.6074 7.71289 16.0293 7.49414 16.5762 7.3457C17.127 7.19336 17.7734 7.11719 18.5156 7.11719ZM13.8164 5.39453H17.7422V3.37891H18.6445V5.39453H23.2969V6.14453H13.8164V5.39453ZM14.9414 1.07031H22.0898V1.94922C22.0859 2.52344 22.0684 3.00977 22.0371 3.4082C22.0059 3.80273 21.9258 4.23828 21.7969 4.71484L20.8945 4.60938C21.0195 4.13281 21.0977 3.70508 21.1289 3.32617C21.1602 2.94336 21.1758 2.48438 21.1758 1.94922V1.82031H14.9414V1.07031ZM15.7852 9.02734C15.7852 9.26562 15.8965 9.47461 16.1191 9.6543C16.3418 9.83008 16.6582 9.96484 17.0684 10.0586C17.4824 10.1523 17.9648 10.1992 18.5156 10.1992C19.0664 10.1992 19.5469 10.1523 19.957 10.0586C20.3711 9.96484 20.6895 9.83008 20.9121 9.6543C21.1387 9.47461 21.2539 9.26562 21.2578 9.02734C21.2539 8.78125 21.1387 8.56836 20.9121 8.38867C20.6895 8.20898 20.3711 8.07031 19.957 7.97266C19.5469 7.87109 19.0664 7.82031 18.5156 7.82031C17.9648 7.82031 17.4824 7.87109 17.0684 7.97266C16.6582 8.07031 16.3418 8.20898 16.1191 8.38867C15.8965 8.56836 15.7852 8.78125 15.7852 9.02734ZM32.3203 3.70703H33.8906V4.48047H32.3203V8.16016H31.3945V0.53125H32.3203V3.70703ZM24.1875 6.21484C25.0234 5.95312 25.7539 5.61914 26.3789 5.21289C27.0039 4.80664 27.498 4.33984 27.8613 3.8125C28.2285 3.28516 28.4434 2.71875 28.5059 2.11328H24.6211V1.33984H29.5078C29.5078 2.21875 29.3086 3.02539 28.9102 3.75977C28.5117 4.49414 27.9434 5.13086 27.2051 5.66992C26.4668 6.20898 25.5938 6.63672 24.5859 6.95312L24.1875 6.21484ZM25.793 7.38672H26.707V9.95312H32.8008V10.7266H25.793V7.38672ZM39.293 0.71875C40.0625 0.71875 40.7227 0.789062 41.2734 0.929688C41.8242 1.06641 42.2441 1.26953 42.5332 1.53906C42.8262 1.80469 42.9727 2.12891 42.9727 2.51172C42.9727 2.90234 42.8262 3.23438 42.5332 3.50781C42.2441 3.78125 41.8242 3.98828 41.2734 4.12891C40.7266 4.26562 40.0664 4.33594 39.293 4.33984C38.5156 4.33594 37.8516 4.26562 37.3008 4.12891C36.75 3.98828 36.3281 3.78125 36.0352 3.50781C35.7461 3.23438 35.6016 2.90234 35.6016 2.51172C35.6016 2.12891 35.7461 1.80469 36.0352 1.53906C36.3281 1.26953 36.75 1.06641 37.3008 0.929688C37.8555 0.789062 38.5195 0.71875 39.293 0.71875ZM34.5469 5.04297H44.0391V5.79297H34.5469V5.04297ZM35.6953 6.69531H42.8203V9.02734H36.6328V10.1055H43.1367V10.832H35.7188V8.34766H41.918V7.39844H35.6953V6.69531ZM36.5625 2.51172C36.5586 2.87109 36.7949 3.14844 37.2715 3.34375C37.748 3.53906 38.4219 3.63672 39.293 3.63672C40.1602 3.63672 40.832 3.54102 41.3086 3.34961C41.7891 3.1543 42.0312 2.875 42.0352 2.51172C42.0352 2.28516 41.9258 2.08984 41.707 1.92578C41.4922 1.76172 41.1777 1.63477 40.7637 1.54492C40.3535 1.45508 39.8633 1.41016 39.293 1.41016C38.7188 1.41016 38.2266 1.45508 37.8164 1.54492C37.4062 1.63477 37.0938 1.76172 36.8789 1.92578C36.6641 2.08984 36.5586 2.28516 36.5625 2.51172ZM57.4219 7.60938H53.1211V10.9727H52.2188V7.60938H47.9297V6.83594H57.4219V7.60938ZM48.5273 5.28906C49.1523 5.20312 49.748 5.0293 50.3145 4.76758C50.8809 4.50195 51.3398 4.17969 51.6914 3.80078C52.043 3.41797 52.2188 3.01562 52.2188 2.59375V2.58203H48.8555V1.83203H52.2188V0.53125H53.1211V1.83203H56.5078V2.58203H53.1328V2.59375C53.1328 3.01172 53.3066 3.41211 53.6543 3.79492C54.002 4.17773 54.459 4.50195 55.0254 4.76758C55.5918 5.0293 56.1875 5.20312 56.8125 5.28906L56.4727 6.02734C55.9336 5.94531 55.4141 5.80469 54.9141 5.60547C54.418 5.40234 53.9746 5.15039 53.584 4.84961C53.1973 4.54492 52.8965 4.20898 52.6816 3.8418C52.4668 4.21289 52.1621 4.54883 51.7676 4.84961C51.377 5.15039 50.9316 5.40234 50.4316 5.60547C49.9316 5.80469 49.4102 5.94531 48.8672 6.02734L48.5273 5.28906ZM66.3633 4.77344H68.0508V5.54688H66.3633V10.9492H65.4492V0.53125H66.3633V4.77344ZM58.3711 8.24219C59.707 7.57812 60.7422 6.75391 61.4766 5.76953C62.2109 4.78516 62.6309 3.67188 62.7363 2.42969H58.8516V1.65625H63.668C63.6641 3.20312 63.2734 4.60742 62.4961 5.86914C61.7188 7.13086 60.5156 8.16406 58.8867 8.96875L58.3711 8.24219ZM76.7344 4.83203H78.4805V5.59375H76.7344V10.9492H75.8203V0.53125H76.7344V4.83203ZM68.6133 2.20703H71.2969V0.660156H72.2109V2.20703H74.8125V2.96875H68.6133V2.20703ZM69.2109 6.22656C69.2109 5.76562 69.3203 5.35352 69.5391 4.99023C69.7578 4.62695 70.0605 4.34375 70.4473 4.14062C70.8379 3.9375 71.2773 3.83594 71.7656 3.83594C72.25 3.83594 72.6855 3.9375 73.0723 4.14062C73.459 4.34375 73.7617 4.62695 73.9805 4.99023C74.2031 5.35352 74.3164 5.76562 74.3203 6.22656C74.3164 6.69141 74.2031 7.10547 73.9805 7.46875C73.7617 7.82812 73.459 8.10938 73.0723 8.3125C72.6855 8.51562 72.25 8.61719 71.7656 8.61719C71.2773 8.61719 70.8379 8.51562 70.4473 8.3125C70.0605 8.10938 69.7578 7.82812 69.5391 7.46875C69.3203 7.10547 69.2109 6.69141 69.2109 6.22656ZM70.0898 6.22656C70.0898 6.53906 70.1602 6.81836 70.3008 7.06445C70.4453 7.30664 70.6445 7.49609 70.8984 7.63281C71.1562 7.76953 71.4453 7.83594 71.7656 7.83203C72.082 7.83594 72.3672 7.76953 72.6211 7.63281C72.875 7.49609 73.0742 7.30664 73.2188 7.06445C73.3633 6.81836 73.4375 6.53906 73.4414 6.22656C73.4375 5.91797 73.3633 5.64062 73.2188 5.39453C73.0742 5.14453 72.875 4.95117 72.6211 4.81445C72.3672 4.67773 72.082 4.60938 71.7656 4.60938C71.4453 4.60938 71.1562 4.67773 70.8984 4.81445C70.6445 4.95117 70.4453 5.14453 70.3008 5.39453C70.1602 5.64062 70.0898 5.91797 70.0898 6.22656ZM82.1367 3.49609C82.1367 4.05469 82.2246 4.61133 82.4004 5.16602C82.5762 5.7168 82.8281 6.2207 83.1562 6.67773C83.4883 7.13477 83.8789 7.49609 84.3281 7.76172L83.8008 8.47656C83.3086 8.17969 82.8828 7.76953 82.5234 7.24609C82.168 6.72266 81.8965 6.13477 81.709 5.48242C81.5137 6.18945 81.2266 6.82422 80.8477 7.38672C80.4688 7.94922 80.0234 8.38672 79.5117 8.69922L78.9258 8.00781C79.3945 7.73438 79.8047 7.36133 80.1562 6.88867C80.5078 6.41211 80.7773 5.88281 80.9648 5.30078C81.1523 4.71875 81.2461 4.12891 81.2461 3.53125V1.51562H82.1367V3.49609ZM83.1797 4.26953H84.9492V0.753906H85.8164V10.4219H84.9492V5.05469H83.1797V4.26953ZM87.082 0.53125H87.9727V10.9492H87.082V0.53125ZM98.9531 9.61328H89.4141V8.83984H91.7812V6.0332C91.3281 5.79883 90.9766 5.49609 90.7266 5.125C90.4766 4.75391 90.3516 4.33594 90.3516 3.87109C90.3516 3.34375 90.5137 2.87695 90.8379 2.4707C91.1621 2.06445 91.6113 1.75 92.1855 1.52734C92.7637 1.30469 93.4219 1.19141 94.1602 1.1875C94.8984 1.19141 95.5547 1.30469 96.1289 1.52734C96.707 1.75 97.1582 2.06445 97.4824 2.4707C97.8066 2.87695 97.9688 3.34375 97.9688 3.87109C97.9688 4.32812 97.8477 4.74023 97.6055 5.10742C97.3633 5.4707 97.0234 5.76953 96.5859 6.00391V8.83984H98.9531V9.61328ZM91.2422 3.87109C91.2422 4.25391 91.3652 4.59375 91.6113 4.89062C91.8574 5.18359 92.2012 5.41211 92.6426 5.57617C93.0879 5.73633 93.5938 5.81641 94.1602 5.81641C94.7227 5.81641 95.2246 5.73633 95.666 5.57617C96.1074 5.41211 96.4531 5.18359 96.7031 4.89062C96.9531 4.59375 97.0781 4.25391 97.0781 3.87109C97.0781 3.48828 96.9531 3.15039 96.7031 2.85742C96.4531 2.56445 96.1074 2.33984 95.666 2.18359C95.2246 2.02344 94.7227 1.94531 94.1602 1.94922C93.5938 1.94531 93.0879 2.02344 92.6426 2.18359C92.2012 2.33984 91.8574 2.56445 91.6113 2.85742C91.3652 3.15039 91.2422 3.48828 91.2422 3.87109ZM95.6602 8.83984V6.36133C95.1953 6.48242 94.6953 6.54297 94.1602 6.54297C93.6211 6.54297 93.1289 6.48438 92.6836 6.36719V8.83984H95.6602Z" fill="#999999"/>
</svg>
