<svg width="46" height="9" viewBox="0 0 46 9" fill="none" xmlns="http://www.w3.org/2000/svg">
<path d="M7.64844 0.109375V8.81055H6.87695V0.109375H7.64844ZM3.0293 0.783203C4.31836 0.792969 5.24609 1.96484 5.24609 3.81055C5.24609 5.65625 4.31836 6.82812 3.0293 6.82812C1.73047 6.82812 0.8125 5.65625 0.8125 3.81055C0.8125 1.96484 1.73047 0.792969 3.0293 0.783203ZM3.0293 1.4668C2.16016 1.47656 1.55469 2.39453 1.55469 3.81055C1.55469 5.22656 2.16016 6.14453 3.0293 6.14453C3.89844 6.14453 4.50391 5.22656 4.50391 3.81055C4.50391 2.39453 3.89844 1.47656 3.0293 1.4668ZM13.6543 0.96875V6.61328H9.64062V0.96875H13.6543ZM10.3926 1.58398V5.98828H12.9023V1.58398H10.3926ZM16.291 0.109375V8.81055H15.5195V0.109375H16.291ZM20.8809 2.77539C20.8809 4.25 21.9551 5.74414 23.2344 6.30078L22.8047 6.90625C21.7891 6.44238 20.9102 5.44141 20.5098 4.24023C20.0996 5.51465 19.2256 6.62305 18.2344 7.12109L17.7754 6.51562C19.0156 5.91992 20.0996 4.2793 20.1094 2.77539V1.64258H18.0586V1.00781H22.9512V1.64258H20.8809V2.77539ZM24.9336 0.109375V8.79102H24.1621V0.109375H24.9336ZM36.8379 5.36328V6.00781H33.2539V8.81055H32.502V6.00781H28.9277V5.36328H36.8379ZM33.2637 1.82812C33.2637 2.91211 34.7773 3.85938 36.3301 4.07422L36.0469 4.68945C34.7041 4.48438 33.4395 3.81055 32.8926 2.86328C32.3359 3.82031 31.0518 4.48438 29.709 4.68945L29.4258 4.07422C30.9688 3.85938 32.502 2.92188 32.502 1.82812V1.81836H29.6992V1.19336H32.502V0.109375H33.2539V1.19336H36.0762V1.81836H33.2637V1.82812ZM44.2891 0.109375V3.64453H45.6953V4.28906H44.2891V8.79102H43.5273V0.109375H44.2891ZM42.043 1.04688C42.043 3.50781 40.8906 5.74414 38.0586 7.14062L37.6289 6.53516C39.875 5.41699 41.0957 3.74707 41.2715 1.69141H38.0293V1.04688H42.043Z" fill="#999999"/>
</svg>
