<svg width="15" height="16" viewBox="0 0 15 16" fill="none" xmlns="http://www.w3.org/2000/svg">
<mask id="mask0_2424_222" style="mask-type:alpha" maskUnits="userSpaceOnUse" x="0" y="0" width="15" height="16">
<rect y="0.5" width="15" height="15" fill="#D9D9D9"/>
</mask>
<g mask="url(#mask0_2424_222)">
<path d="M3.70312 11.0468C4.26562 10.651 4.86719 10.3567 5.50781 10.164C6.14844 9.97132 6.8125 9.87497 7.5 9.87497C8.1875 9.87497 8.85156 9.97132 9.49219 10.164C10.1328 10.3567 10.7344 10.651 11.2969 11.0468C11.6615 10.6198 11.9323 10.1458 12.1094 9.62497C12.2865 9.10414 12.375 8.56247 12.375 7.99997C12.375 6.64924 11.8998 5.49903 10.9495 4.54934C9.99922 3.59976 8.84818 3.12497 7.49641 3.12497C6.14464 3.12497 4.99479 3.59976 4.04688 4.54934C3.09896 5.49903 2.625 6.64924 2.625 7.99997C2.625 8.56247 2.71354 9.10414 2.89062 9.62497C3.06771 10.1458 3.33854 10.6198 3.70312 11.0468ZM7.5 9.12497C6.875 9.12497 6.34375 8.90622 5.90625 8.46872C5.46875 8.03122 5.25 7.49997 5.25 6.87497C5.25 6.24997 5.46875 5.71872 5.90625 5.28122C6.34375 4.84372 6.875 4.62497 7.5 4.62497C8.125 4.62497 8.65625 4.84372 9.09375 5.28122C9.53125 5.71872 9.75 6.24997 9.75 6.87497C9.75 7.49997 9.53125 8.03122 9.09375 8.46872C8.65625 8.90622 8.125 9.12497 7.5 9.12497ZM7.50438 14C6.67854 14 5.90104 13.8437 5.17188 13.5312C4.44271 13.2187 3.80469 12.789 3.25781 12.2422C2.71094 11.6953 2.28125 11.0575 1.96875 10.3287C1.65625 9.59997 1.5 8.82132 1.5 7.99278C1.5 7.16424 1.65625 6.38799 1.96875 5.66403C2.28125 4.94007 2.71094 4.30466 3.25781 3.75778C3.80469 3.21091 4.4425 2.78122 5.17125 2.46872C5.9 2.15622 6.67865 1.99997 7.50719 1.99997C8.33573 1.99997 9.11198 2.15622 9.83594 2.46872C10.5599 2.78122 11.1953 3.21091 11.7422 3.75778C12.2891 4.30466 12.7188 4.94122 13.0312 5.66747C13.3438 6.39382 13.5 7.16987 13.5 7.99559C13.5 8.82143 13.3438 9.59893 13.0312 10.3281C12.7188 11.0573 12.2891 11.6953 11.7422 12.2422C11.1953 12.789 10.5588 13.2187 9.8325 13.5312C9.10615 13.8437 8.3301 14 7.50438 14ZM7.5 12.875C8.04167 12.875 8.5625 12.789 9.0625 12.6172C9.5625 12.4453 10.0312 12.1927 10.4688 11.8593C10.0208 11.5781 9.54688 11.3646 9.04688 11.2187C8.54688 11.0729 8.03125 11 7.5 11C6.96875 11 6.45052 11.0703 5.94531 11.2109C5.4401 11.3515 4.96875 11.5677 4.53125 11.8593C4.96875 12.1927 5.4375 12.4453 5.9375 12.6172C6.4375 12.789 6.95833 12.875 7.5 12.875ZM7.5 7.99997C7.8125 7.99997 8.07812 7.89059 8.29688 7.67184C8.51562 7.45309 8.625 7.18747 8.625 6.87497C8.625 6.56247 8.51562 6.29684 8.29688 6.07809C8.07812 5.85934 7.8125 5.74997 7.5 5.74997C7.1875 5.74997 6.92188 5.85934 6.70312 6.07809C6.48438 6.29684 6.375 6.56247 6.375 6.87497C6.375 7.18747 6.48438 7.45309 6.70312 7.67184C6.92188 7.89059 7.1875 7.99997 7.5 7.99997Z" fill="#333333"/>
<path d="M3.70312 11.0468C4.26562 10.651 4.86719 10.3567 5.50781 10.164C6.14844 9.97132 6.8125 9.87497 7.5 9.87497C8.1875 9.87497 8.85156 9.97132 9.49219 10.164C10.1328 10.3567 10.7344 10.651 11.2969 11.0468C11.6615 10.6198 11.9323 10.1458 12.1094 9.62497C12.2865 9.10414 12.375 8.56247 12.375 7.99997C12.375 6.64924 11.8998 5.49903 10.9495 4.54934C9.99922 3.59976 8.84818 3.12497 7.49641 3.12497C6.14464 3.12497 4.99479 3.59976 4.04688 4.54934C3.09896 5.49903 2.625 6.64924 2.625 7.99997C2.625 8.56247 2.71354 9.10414 2.89062 9.62497C3.06771 10.1458 3.33854 10.6198 3.70312 11.0468ZM7.5 9.12497C6.875 9.12497 6.34375 8.90622 5.90625 8.46872C5.46875 8.03122 5.25 7.49997 5.25 6.87497C5.25 6.24997 5.46875 5.71872 5.90625 5.28122C6.34375 4.84372 6.875 4.62497 7.5 4.62497C8.125 4.62497 8.65625 4.84372 9.09375 5.28122C9.53125 5.71872 9.75 6.24997 9.75 6.87497C9.75 7.49997 9.53125 8.03122 9.09375 8.46872C8.65625 8.90622 8.125 9.12497 7.5 9.12497ZM7.50438 14C6.67854 14 5.90104 13.8437 5.17188 13.5312C4.44271 13.2187 3.80469 12.789 3.25781 12.2422C2.71094 11.6953 2.28125 11.0575 1.96875 10.3287C1.65625 9.59997 1.5 8.82132 1.5 7.99278C1.5 7.16424 1.65625 6.38799 1.96875 5.66403C2.28125 4.94007 2.71094 4.30466 3.25781 3.75778C3.80469 3.21091 4.4425 2.78122 5.17125 2.46872C5.9 2.15622 6.67865 1.99997 7.50719 1.99997C8.33573 1.99997 9.11198 2.15622 9.83594 2.46872C10.5599 2.78122 11.1953 3.21091 11.7422 3.75778C12.2891 4.30466 12.7188 4.94122 13.0312 5.66747C13.3438 6.39382 13.5 7.16987 13.5 7.99559C13.5 8.82143 13.3438 9.59893 13.0312 10.3281C12.7188 11.0573 12.2891 11.6953 11.7422 12.2422C11.1953 12.789 10.5588 13.2187 9.8325 13.5312C9.10615 13.8437 8.3301 14 7.50438 14ZM7.5 12.875C8.04167 12.875 8.5625 12.789 9.0625 12.6172C9.5625 12.4453 10.0312 12.1927 10.4688 11.8593C10.0208 11.5781 9.54688 11.3646 9.04688 11.2187C8.54688 11.0729 8.03125 11 7.5 11C6.96875 11 6.45052 11.0703 5.94531 11.2109C5.4401 11.3515 4.96875 11.5677 4.53125 11.8593C4.96875 12.1927 5.4375 12.4453 5.9375 12.6172C6.4375 12.789 6.95833 12.875 7.5 12.875ZM7.5 7.99997C7.8125 7.99997 8.07812 7.89059 8.29688 7.67184C8.51562 7.45309 8.625 7.18747 8.625 6.87497C8.625 6.56247 8.51562 6.29684 8.29688 6.07809C8.07812 5.85934 7.8125 5.74997 7.5 5.74997C7.1875 5.74997 6.92188 5.85934 6.70312 6.07809C6.48438 6.29684 6.375 6.56247 6.375 6.87497C6.375 7.18747 6.48438 7.45309 6.70312 7.67184C6.92188 7.89059 7.1875 7.99997 7.5 7.99997Z" fill="black" fill-opacity="0.2"/>
<path d="M3.70312 11.0468C4.26562 10.651 4.86719 10.3567 5.50781 10.164C6.14844 9.97132 6.8125 9.87497 7.5 9.87497C8.1875 9.87497 8.85156 9.97132 9.49219 10.164C10.1328 10.3567 10.7344 10.651 11.2969 11.0468C11.6615 10.6198 11.9323 10.1458 12.1094 9.62497C12.2865 9.10414 12.375 8.56247 12.375 7.99997C12.375 6.64924 11.8998 5.49903 10.9495 4.54934C9.99922 3.59976 8.84818 3.12497 7.49641 3.12497C6.14464 3.12497 4.99479 3.59976 4.04688 4.54934C3.09896 5.49903 2.625 6.64924 2.625 7.99997C2.625 8.56247 2.71354 9.10414 2.89062 9.62497C3.06771 10.1458 3.33854 10.6198 3.70312 11.0468ZM7.5 9.12497C6.875 9.12497 6.34375 8.90622 5.90625 8.46872C5.46875 8.03122 5.25 7.49997 5.25 6.87497C5.25 6.24997 5.46875 5.71872 5.90625 5.28122C6.34375 4.84372 6.875 4.62497 7.5 4.62497C8.125 4.62497 8.65625 4.84372 9.09375 5.28122C9.53125 5.71872 9.75 6.24997 9.75 6.87497C9.75 7.49997 9.53125 8.03122 9.09375 8.46872C8.65625 8.90622 8.125 9.12497 7.5 9.12497ZM7.50438 14C6.67854 14 5.90104 13.8437 5.17188 13.5312C4.44271 13.2187 3.80469 12.789 3.25781 12.2422C2.71094 11.6953 2.28125 11.0575 1.96875 10.3287C1.65625 9.59997 1.5 8.82132 1.5 7.99278C1.5 7.16424 1.65625 6.38799 1.96875 5.66403C2.28125 4.94007 2.71094 4.30466 3.25781 3.75778C3.80469 3.21091 4.4425 2.78122 5.17125 2.46872C5.9 2.15622 6.67865 1.99997 7.50719 1.99997C8.33573 1.99997 9.11198 2.15622 9.83594 2.46872C10.5599 2.78122 11.1953 3.21091 11.7422 3.75778C12.2891 4.30466 12.7188 4.94122 13.0312 5.66747C13.3438 6.39382 13.5 7.16987 13.5 7.99559C13.5 8.82143 13.3438 9.59893 13.0312 10.3281C12.7188 11.0573 12.2891 11.6953 11.7422 12.2422C11.1953 12.789 10.5588 13.2187 9.8325 13.5312C9.10615 13.8437 8.3301 14 7.50438 14ZM7.5 12.875C8.04167 12.875 8.5625 12.789 9.0625 12.6172C9.5625 12.4453 10.0312 12.1927 10.4688 11.8593C10.0208 11.5781 9.54688 11.3646 9.04688 11.2187C8.54688 11.0729 8.03125 11 7.5 11C6.96875 11 6.45052 11.0703 5.94531 11.2109C5.4401 11.3515 4.96875 11.5677 4.53125 11.8593C4.96875 12.1927 5.4375 12.4453 5.9375 12.6172C6.4375 12.789 6.95833 12.875 7.5 12.875ZM7.5 7.99997C7.8125 7.99997 8.07812 7.89059 8.29688 7.67184C8.51562 7.45309 8.625 7.18747 8.625 6.87497C8.625 6.56247 8.51562 6.29684 8.29688 6.07809C8.07812 5.85934 7.8125 5.74997 7.5 5.74997C7.1875 5.74997 6.92188 5.85934 6.70312 6.07809C6.48438 6.29684 6.375 6.56247 6.375 6.87497C6.375 7.18747 6.48438 7.45309 6.70312 7.67184C6.92188 7.89059 7.1875 7.99997 7.5 7.99997Z" fill="black" fill-opacity="0.2"/>
<path d="M3.70312 11.0468C4.26562 10.651 4.86719 10.3567 5.50781 10.164C6.14844 9.97132 6.8125 9.87497 7.5 9.87497C8.1875 9.87497 8.85156 9.97132 9.49219 10.164C10.1328 10.3567 10.7344 10.651 11.2969 11.0468C11.6615 10.6198 11.9323 10.1458 12.1094 9.62497C12.2865 9.10414 12.375 8.56247 12.375 7.99997C12.375 6.64924 11.8998 5.49903 10.9495 4.54934C9.99922 3.59976 8.84818 3.12497 7.49641 3.12497C6.14464 3.12497 4.99479 3.59976 4.04688 4.54934C3.09896 5.49903 2.625 6.64924 2.625 7.99997C2.625 8.56247 2.71354 9.10414 2.89062 9.62497C3.06771 10.1458 3.33854 10.6198 3.70312 11.0468ZM7.5 9.12497C6.875 9.12497 6.34375 8.90622 5.90625 8.46872C5.46875 8.03122 5.25 7.49997 5.25 6.87497C5.25 6.24997 5.46875 5.71872 5.90625 5.28122C6.34375 4.84372 6.875 4.62497 7.5 4.62497C8.125 4.62497 8.65625 4.84372 9.09375 5.28122C9.53125 5.71872 9.75 6.24997 9.75 6.87497C9.75 7.49997 9.53125 8.03122 9.09375 8.46872C8.65625 8.90622 8.125 9.12497 7.5 9.12497ZM7.50438 14C6.67854 14 5.90104 13.8437 5.17188 13.5312C4.44271 13.2187 3.80469 12.789 3.25781 12.2422C2.71094 11.6953 2.28125 11.0575 1.96875 10.3287C1.65625 9.59997 1.5 8.82132 1.5 7.99278C1.5 7.16424 1.65625 6.38799 1.96875 5.66403C2.28125 4.94007 2.71094 4.30466 3.25781 3.75778C3.80469 3.21091 4.4425 2.78122 5.17125 2.46872C5.9 2.15622 6.67865 1.99997 7.50719 1.99997C8.33573 1.99997 9.11198 2.15622 9.83594 2.46872C10.5599 2.78122 11.1953 3.21091 11.7422 3.75778C12.2891 4.30466 12.7188 4.94122 13.0312 5.66747C13.3438 6.39382 13.5 7.16987 13.5 7.99559C13.5 8.82143 13.3438 9.59893 13.0312 10.3281C12.7188 11.0573 12.2891 11.6953 11.7422 12.2422C11.1953 12.789 10.5588 13.2187 9.8325 13.5312C9.10615 13.8437 8.3301 14 7.50438 14ZM7.5 12.875C8.04167 12.875 8.5625 12.789 9.0625 12.6172C9.5625 12.4453 10.0312 12.1927 10.4688 11.8593C10.0208 11.5781 9.54688 11.3646 9.04688 11.2187C8.54688 11.0729 8.03125 11 7.5 11C6.96875 11 6.45052 11.0703 5.94531 11.2109C5.4401 11.3515 4.96875 11.5677 4.53125 11.8593C4.96875 12.1927 5.4375 12.4453 5.9375 12.6172C6.4375 12.789 6.95833 12.875 7.5 12.875ZM7.5 7.99997C7.8125 7.99997 8.07812 7.89059 8.29688 7.67184C8.51562 7.45309 8.625 7.18747 8.625 6.87497C8.625 6.56247 8.51562 6.29684 8.29688 6.07809C8.07812 5.85934 7.8125 5.74997 7.5 5.74997C7.1875 5.74997 6.92188 5.85934 6.70312 6.07809C6.48438 6.29684 6.375 6.56247 6.375 6.87497C6.375 7.18747 6.48438 7.45309 6.70312 7.67184C6.92188 7.89059 7.1875 7.99997 7.5 7.99997Z" fill="black" fill-opacity="0.2"/>
<path d="M3.70312 11.0468C4.26562 10.651 4.86719 10.3567 5.50781 10.164C6.14844 9.97132 6.8125 9.87497 7.5 9.87497C8.1875 9.87497 8.85156 9.97132 9.49219 10.164C10.1328 10.3567 10.7344 10.651 11.2969 11.0468C11.6615 10.6198 11.9323 10.1458 12.1094 9.62497C12.2865 9.10414 12.375 8.56247 12.375 7.99997C12.375 6.64924 11.8998 5.49903 10.9495 4.54934C9.99922 3.59976 8.84818 3.12497 7.49641 3.12497C6.14464 3.12497 4.99479 3.59976 4.04688 4.54934C3.09896 5.49903 2.625 6.64924 2.625 7.99997C2.625 8.56247 2.71354 9.10414 2.89062 9.62497C3.06771 10.1458 3.33854 10.6198 3.70312 11.0468ZM7.5 9.12497C6.875 9.12497 6.34375 8.90622 5.90625 8.46872C5.46875 8.03122 5.25 7.49997 5.25 6.87497C5.25 6.24997 5.46875 5.71872 5.90625 5.28122C6.34375 4.84372 6.875 4.62497 7.5 4.62497C8.125 4.62497 8.65625 4.84372 9.09375 5.28122C9.53125 5.71872 9.75 6.24997 9.75 6.87497C9.75 7.49997 9.53125 8.03122 9.09375 8.46872C8.65625 8.90622 8.125 9.12497 7.5 9.12497ZM7.50438 14C6.67854 14 5.90104 13.8437 5.17188 13.5312C4.44271 13.2187 3.80469 12.789 3.25781 12.2422C2.71094 11.6953 2.28125 11.0575 1.96875 10.3287C1.65625 9.59997 1.5 8.82132 1.5 7.99278C1.5 7.16424 1.65625 6.38799 1.96875 5.66403C2.28125 4.94007 2.71094 4.30466 3.25781 3.75778C3.80469 3.21091 4.4425 2.78122 5.17125 2.46872C5.9 2.15622 6.67865 1.99997 7.50719 1.99997C8.33573 1.99997 9.11198 2.15622 9.83594 2.46872C10.5599 2.78122 11.1953 3.21091 11.7422 3.75778C12.2891 4.30466 12.7188 4.94122 13.0312 5.66747C13.3438 6.39382 13.5 7.16987 13.5 7.99559C13.5 8.82143 13.3438 9.59893 13.0312 10.3281C12.7188 11.0573 12.2891 11.6953 11.7422 12.2422C11.1953 12.789 10.5588 13.2187 9.8325 13.5312C9.10615 13.8437 8.3301 14 7.50438 14ZM7.5 12.875C8.04167 12.875 8.5625 12.789 9.0625 12.6172C9.5625 12.4453 10.0312 12.1927 10.4688 11.8593C10.0208 11.5781 9.54688 11.3646 9.04688 11.2187C8.54688 11.0729 8.03125 11 7.5 11C6.96875 11 6.45052 11.0703 5.94531 11.2109C5.4401 11.3515 4.96875 11.5677 4.53125 11.8593C4.96875 12.1927 5.4375 12.4453 5.9375 12.6172C6.4375 12.789 6.95833 12.875 7.5 12.875ZM7.5 7.99997C7.8125 7.99997 8.07812 7.89059 8.29688 7.67184C8.51562 7.45309 8.625 7.18747 8.625 6.87497C8.625 6.56247 8.51562 6.29684 8.29688 6.07809C8.07812 5.85934 7.8125 5.74997 7.5 5.74997C7.1875 5.74997 6.92188 5.85934 6.70312 6.07809C6.48438 6.29684 6.375 6.56247 6.375 6.87497C6.375 7.18747 6.48438 7.45309 6.70312 7.67184C6.92188 7.89059 7.1875 7.99997 7.5 7.99997Z" fill="black" fill-opacity="0.2"/>
<path d="M3.70312 11.0468C4.26562 10.651 4.86719 10.3567 5.50781 10.164C6.14844 9.97132 6.8125 9.87497 7.5 9.87497C8.1875 9.87497 8.85156 9.97132 9.49219 10.164C10.1328 10.3567 10.7344 10.651 11.2969 11.0468C11.6615 10.6198 11.9323 10.1458 12.1094 9.62497C12.2865 9.10414 12.375 8.56247 12.375 7.99997C12.375 6.64924 11.8998 5.49903 10.9495 4.54934C9.99922 3.59976 8.84818 3.12497 7.49641 3.12497C6.14464 3.12497 4.99479 3.59976 4.04688 4.54934C3.09896 5.49903 2.625 6.64924 2.625 7.99997C2.625 8.56247 2.71354 9.10414 2.89062 9.62497C3.06771 10.1458 3.33854 10.6198 3.70312 11.0468ZM7.5 9.12497C6.875 9.12497 6.34375 8.90622 5.90625 8.46872C5.46875 8.03122 5.25 7.49997 5.25 6.87497C5.25 6.24997 5.46875 5.71872 5.90625 5.28122C6.34375 4.84372 6.875 4.62497 7.5 4.62497C8.125 4.62497 8.65625 4.84372 9.09375 5.28122C9.53125 5.71872 9.75 6.24997 9.75 6.87497C9.75 7.49997 9.53125 8.03122 9.09375 8.46872C8.65625 8.90622 8.125 9.12497 7.5 9.12497ZM7.50438 14C6.67854 14 5.90104 13.8437 5.17188 13.5312C4.44271 13.2187 3.80469 12.789 3.25781 12.2422C2.71094 11.6953 2.28125 11.0575 1.96875 10.3287C1.65625 9.59997 1.5 8.82132 1.5 7.99278C1.5 7.16424 1.65625 6.38799 1.96875 5.66403C2.28125 4.94007 2.71094 4.30466 3.25781 3.75778C3.80469 3.21091 4.4425 2.78122 5.17125 2.46872C5.9 2.15622 6.67865 1.99997 7.50719 1.99997C8.33573 1.99997 9.11198 2.15622 9.83594 2.46872C10.5599 2.78122 11.1953 3.21091 11.7422 3.75778C12.2891 4.30466 12.7188 4.94122 13.0312 5.66747C13.3438 6.39382 13.5 7.16987 13.5 7.99559C13.5 8.82143 13.3438 9.59893 13.0312 10.3281C12.7188 11.0573 12.2891 11.6953 11.7422 12.2422C11.1953 12.789 10.5588 13.2187 9.8325 13.5312C9.10615 13.8437 8.3301 14 7.50438 14ZM7.5 12.875C8.04167 12.875 8.5625 12.789 9.0625 12.6172C9.5625 12.4453 10.0312 12.1927 10.4688 11.8593C10.0208 11.5781 9.54688 11.3646 9.04688 11.2187C8.54688 11.0729 8.03125 11 7.5 11C6.96875 11 6.45052 11.0703 5.94531 11.2109C5.4401 11.3515 4.96875 11.5677 4.53125 11.8593C4.96875 12.1927 5.4375 12.4453 5.9375 12.6172C6.4375 12.789 6.95833 12.875 7.5 12.875ZM7.5 7.99997C7.8125 7.99997 8.07812 7.89059 8.29688 7.67184C8.51562 7.45309 8.625 7.18747 8.625 6.87497C8.625 6.56247 8.51562 6.29684 8.29688 6.07809C8.07812 5.85934 7.8125 5.74997 7.5 5.74997C7.1875 5.74997 6.92188 5.85934 6.70312 6.07809C6.48438 6.29684 6.375 6.56247 6.375 6.87497C6.375 7.18747 6.48438 7.45309 6.70312 7.67184C6.92188 7.89059 7.1875 7.99997 7.5 7.99997Z" fill="black" fill-opacity="0.2"/>
<path d="M3.70312 11.0468C4.26562 10.651 4.86719 10.3567 5.50781 10.164C6.14844 9.97132 6.8125 9.87497 7.5 9.87497C8.1875 9.87497 8.85156 9.97132 9.49219 10.164C10.1328 10.3567 10.7344 10.651 11.2969 11.0468C11.6615 10.6198 11.9323 10.1458 12.1094 9.62497C12.2865 9.10414 12.375 8.56247 12.375 7.99997C12.375 6.64924 11.8998 5.49903 10.9495 4.54934C9.99922 3.59976 8.84818 3.12497 7.49641 3.12497C6.14464 3.12497 4.99479 3.59976 4.04688 4.54934C3.09896 5.49903 2.625 6.64924 2.625 7.99997C2.625 8.56247 2.71354 9.10414 2.89062 9.62497C3.06771 10.1458 3.33854 10.6198 3.70312 11.0468ZM7.5 9.12497C6.875 9.12497 6.34375 8.90622 5.90625 8.46872C5.46875 8.03122 5.25 7.49997 5.25 6.87497C5.25 6.24997 5.46875 5.71872 5.90625 5.28122C6.34375 4.84372 6.875 4.62497 7.5 4.62497C8.125 4.62497 8.65625 4.84372 9.09375 5.28122C9.53125 5.71872 9.75 6.24997 9.75 6.87497C9.75 7.49997 9.53125 8.03122 9.09375 8.46872C8.65625 8.90622 8.125 9.12497 7.5 9.12497ZM7.50438 14C6.67854 14 5.90104 13.8437 5.17188 13.5312C4.44271 13.2187 3.80469 12.789 3.25781 12.2422C2.71094 11.6953 2.28125 11.0575 1.96875 10.3287C1.65625 9.59997 1.5 8.82132 1.5 7.99278C1.5 7.16424 1.65625 6.38799 1.96875 5.66403C2.28125 4.94007 2.71094 4.30466 3.25781 3.75778C3.80469 3.21091 4.4425 2.78122 5.17125 2.46872C5.9 2.15622 6.67865 1.99997 7.50719 1.99997C8.33573 1.99997 9.11198 2.15622 9.83594 2.46872C10.5599 2.78122 11.1953 3.21091 11.7422 3.75778C12.2891 4.30466 12.7188 4.94122 13.0312 5.66747C13.3438 6.39382 13.5 7.16987 13.5 7.99559C13.5 8.82143 13.3438 9.59893 13.0312 10.3281C12.7188 11.0573 12.2891 11.6953 11.7422 12.2422C11.1953 12.789 10.5588 13.2187 9.8325 13.5312C9.10615 13.8437 8.3301 14 7.50438 14ZM7.5 12.875C8.04167 12.875 8.5625 12.789 9.0625 12.6172C9.5625 12.4453 10.0312 12.1927 10.4688 11.8593C10.0208 11.5781 9.54688 11.3646 9.04688 11.2187C8.54688 11.0729 8.03125 11 7.5 11C6.96875 11 6.45052 11.0703 5.94531 11.2109C5.4401 11.3515 4.96875 11.5677 4.53125 11.8593C4.96875 12.1927 5.4375 12.4453 5.9375 12.6172C6.4375 12.789 6.95833 12.875 7.5 12.875ZM7.5 7.99997C7.8125 7.99997 8.07812 7.89059 8.29688 7.67184C8.51562 7.45309 8.625 7.18747 8.625 6.87497C8.625 6.56247 8.51562 6.29684 8.29688 6.07809C8.07812 5.85934 7.8125 5.74997 7.5 5.74997C7.1875 5.74997 6.92188 5.85934 6.70312 6.07809C6.48438 6.29684 6.375 6.56247 6.375 6.87497C6.375 7.18747 6.48438 7.45309 6.70312 7.67184C6.92188 7.89059 7.1875 7.99997 7.5 7.99997Z" fill="black" fill-opacity="0.2"/>
<path d="M3.70312 11.0468C4.26562 10.651 4.86719 10.3567 5.50781 10.164C6.14844 9.97132 6.8125 9.87497 7.5 9.87497C8.1875 9.87497 8.85156 9.97132 9.49219 10.164C10.1328 10.3567 10.7344 10.651 11.2969 11.0468C11.6615 10.6198 11.9323 10.1458 12.1094 9.62497C12.2865 9.10414 12.375 8.56247 12.375 7.99997C12.375 6.64924 11.8998 5.49903 10.9495 4.54934C9.99922 3.59976 8.84818 3.12497 7.49641 3.12497C6.14464 3.12497 4.99479 3.59976 4.04688 4.54934C3.09896 5.49903 2.625 6.64924 2.625 7.99997C2.625 8.56247 2.71354 9.10414 2.89062 9.62497C3.06771 10.1458 3.33854 10.6198 3.70312 11.0468ZM7.5 9.12497C6.875 9.12497 6.34375 8.90622 5.90625 8.46872C5.46875 8.03122 5.25 7.49997 5.25 6.87497C5.25 6.24997 5.46875 5.71872 5.90625 5.28122C6.34375 4.84372 6.875 4.62497 7.5 4.62497C8.125 4.62497 8.65625 4.84372 9.09375 5.28122C9.53125 5.71872 9.75 6.24997 9.75 6.87497C9.75 7.49997 9.53125 8.03122 9.09375 8.46872C8.65625 8.90622 8.125 9.12497 7.5 9.12497ZM7.50438 14C6.67854 14 5.90104 13.8437 5.17188 13.5312C4.44271 13.2187 3.80469 12.789 3.25781 12.2422C2.71094 11.6953 2.28125 11.0575 1.96875 10.3287C1.65625 9.59997 1.5 8.82132 1.5 7.99278C1.5 7.16424 1.65625 6.38799 1.96875 5.66403C2.28125 4.94007 2.71094 4.30466 3.25781 3.75778C3.80469 3.21091 4.4425 2.78122 5.17125 2.46872C5.9 2.15622 6.67865 1.99997 7.50719 1.99997C8.33573 1.99997 9.11198 2.15622 9.83594 2.46872C10.5599 2.78122 11.1953 3.21091 11.7422 3.75778C12.2891 4.30466 12.7188 4.94122 13.0312 5.66747C13.3438 6.39382 13.5 7.16987 13.5 7.99559C13.5 8.82143 13.3438 9.59893 13.0312 10.3281C12.7188 11.0573 12.2891 11.6953 11.7422 12.2422C11.1953 12.789 10.5588 13.2187 9.8325 13.5312C9.10615 13.8437 8.3301 14 7.50438 14ZM7.5 12.875C8.04167 12.875 8.5625 12.789 9.0625 12.6172C9.5625 12.4453 10.0312 12.1927 10.4688 11.8593C10.0208 11.5781 9.54688 11.3646 9.04688 11.2187C8.54688 11.0729 8.03125 11 7.5 11C6.96875 11 6.45052 11.0703 5.94531 11.2109C5.4401 11.3515 4.96875 11.5677 4.53125 11.8593C4.96875 12.1927 5.4375 12.4453 5.9375 12.6172C6.4375 12.789 6.95833 12.875 7.5 12.875ZM7.5 7.99997C7.8125 7.99997 8.07812 7.89059 8.29688 7.67184C8.51562 7.45309 8.625 7.18747 8.625 6.87497C8.625 6.56247 8.51562 6.29684 8.29688 6.07809C8.07812 5.85934 7.8125 5.74997 7.5 5.74997C7.1875 5.74997 6.92188 5.85934 6.70312 6.07809C6.48438 6.29684 6.375 6.56247 6.375 6.87497C6.375 7.18747 6.48438 7.45309 6.70312 7.67184C6.92188 7.89059 7.1875 7.99997 7.5 7.99997Z" fill="black" fill-opacity="0.2"/>
</g>
</svg>
